<svg width="315" height="347" viewBox="0 0 315 347" fill="none" xmlns="http://www.w3.org/2000/svg">
<path d="M4.43488 40.325C10.0015 44.2412 15.8648 46.6171 21.9036 49.7532C23.1064 51.6255 24.5604 53.3054 26.0037 55.0293C26.1534 55.0414 26.3031 55.0558 26.4528 55.067C26.7032 55.0855 26.9526 55.0967 27.2021 55.1167C30.1021 55.3429 32.8034 54.9909 35.6785 54.6581C40.4032 55.5008 45.1252 56.4414 49.8784 57.1406L49.2387 57.9922L48.8512 58.3057L48.4672 60.3577C47.6279 60.8027 46.6924 61.2164 45.9191 61.7456C44.4748 64.1752 43.0271 66.5912 41.761 69.1018L19.3635 112.837C15.054 121.231 11.0483 130.06 6.08311 138.144C6.87516 125.389 5.20823 112.674 4.88927 99.9498C4.77523 95.4089 5.56462 90.8921 5.62431 86.3512C5.74904 76.9086 5.23497 67.4396 5.14409 57.9914C5.08618 52.0465 4.01525 46.3068 4.43488 40.325Z" fill="#060626"/>
<path d="M24.39 93.7522L24.8969 93.8998C25.1473 94.4386 25.7513 95.129 25.3789 95.6871C24.6029 96.8506 23.0963 97.2242 21.7697 97.6668L20.8307 97.399L20.4974 96.622C20.7754 95.7456 20.9518 95.0472 21.6485 94.3608C22.3809 93.6399 23.3431 93.8244 24.39 93.7522Z" fill="black"/>
<path d="M35.6783 54.6581C40.403 55.5008 45.125 56.4414 49.8782 57.1406L49.2385 57.9922L48.851 58.3057L48.4669 60.3576C47.6277 60.8027 46.6922 61.2164 45.9189 61.7456C44.4746 64.1752 43.0269 66.5912 41.7608 69.1018C41.3002 69.0329 40.55 68.9719 40.1072 68.7899C38.8447 68.2695 38.6879 67.7571 38.0696 66.6955L38.3904 66.5623L38.1863 65.8519L37.511 66.0075C36.8615 64.8279 36.1354 63.4231 34.831 62.8145C34.2751 63.0599 33.8661 63.2932 33.3743 63.6444C33.2095 63.7623 33.0492 63.885 32.8861 64.0052L32.0629 63.3974C31.7083 62.3318 31.2486 61.7007 30.4939 60.8484L30.2249 60.5493C28.5285 58.9047 27.454 56.8567 26.0035 55.0293C26.1532 55.0414 26.3029 55.0558 26.4526 55.067C26.703 55.0855 26.9524 55.0967 27.2019 55.1167C30.1019 55.3429 32.8032 54.9908 35.6783 54.6581Z" fill="black"/>
<path d="M45.9189 61.7456C45.0084 61.4361 44.2332 61.1162 43.7655 60.3328L44.1789 59.6536C45.7585 58.8076 47.0469 58.5639 48.851 58.3057L48.467 60.3576C47.6277 60.8026 46.6922 61.2164 45.9189 61.7456Z" fill="#0D0D0D"/>
<path d="M30.2251 60.5493L31.2194 59.8957C31.6515 60.5252 31.4501 60.1884 31.8136 60.9085L32.121 60.8452C32.1175 60.7072 32.1077 60.5701 32.1094 60.4322C32.1237 59.3337 32.2698 58.8598 33.0984 58.0996C34.3929 58.7146 35.1805 59.474 36.7076 59.0963C37.4792 58.9055 38.3122 58.4476 39.032 58.122L39.5943 58.3369C38.8762 59.9815 36.9713 61.0199 36.418 62.5916C37.5985 64.0132 37.4658 64.2971 37.5112 66.0075C36.8617 64.8279 36.1356 63.4231 34.8313 62.8145C34.2753 63.0599 33.8664 63.2932 33.3746 63.6444C33.2097 63.7623 33.0494 63.885 32.8863 64.0052L32.0631 63.3974C31.7085 62.3318 31.2488 61.7007 30.4942 60.8484L30.2251 60.5493Z" fill="#1A1A1A"/>
<path d="M216.337 33.6937C216.324 33.3847 216.318 33.0755 216.32 32.7659C216.353 28.9948 219.148 25.5734 222.028 23.0219C226.349 19.1946 231.794 16.8292 237.269 14.6265C254.26 7.78992 271.417 4.92892 289.804 3.12796C298.17 2.30767 306.331 1.586 314.759 1.59643V63.0903L306.001 62.8674C303.489 62.6621 301.03 62.5138 298.499 62.5138C297.831 62.3598 298.134 62.4007 297.413 62.3623C292.228 62.0872 287.14 61.3046 282.026 60.5412L279.435 60.1932C261.973 56.5095 244.631 55.3244 228.829 46.6893C223.169 43.5957 217.987 39.7084 216.337 33.6937Z" fill="white"/>
<path d="M310.18 34.4225C306.893 33.9895 303.596 34.7304 300.371 33.7778C299.498 33.0065 299.507 32.9263 299.293 31.8342L299.765 31.2681C302.714 30.4229 305.806 30.4141 308.853 30.7228C310.385 30.7797 310.947 30.5616 312.096 31.5335C312.497 32.6537 312.532 32.7571 312.176 33.8813C311.303 34.5621 311.347 34.4867 310.18 34.4225Z" fill="black"/>
<path d="M309.324 42.0962C309.609 42.1323 309.894 42.1395 310.18 42.2044C311.311 42.4675 311.409 42.7072 311.819 43.5924C310.999 46.8279 304.816 52.388 302.437 55.2217C301.698 55.3404 301.056 55.0814 300.344 54.9098C300.032 54.5674 299.96 54.6187 299.943 54.2178C299.764 50.6207 306.723 44.517 309.324 42.0962Z" fill="black"/>
<path d="M298.17 17.2541C298.437 17.2517 298.713 17.2533 298.98 17.2461C299.542 17.2301 299.8 17.178 300.326 17.2357C303.578 17.6005 310.188 21.2947 311.837 23.6818C312.594 24.7883 312.291 25.7169 312.024 26.9076C311.837 26.9228 311.659 26.9437 311.471 26.9533C308.157 27.1281 303.177 23.5286 300.664 21.5962C298.856 20.2049 298.348 19.4408 298.17 17.2541Z" fill="black"/>
<path d="M288.787 36.7608C289.148 36.7215 289.723 36.6469 290.074 36.6638C291.292 36.7239 291.407 37.027 292.111 37.832C292.238 38.8231 292.293 38.9065 291.755 39.7653C288.063 42.0971 280.892 41.8934 276.403 42.7474C275.718 42.8356 274.901 43.0064 274.215 42.9743C273.027 42.9182 272.761 42.3801 271.991 41.6408C271.999 41.1228 271.856 40.7869 272.272 40.3787C275.059 37.6428 284.81 37.1216 288.787 36.7608Z" fill="black"/>
<path d="M262.144 25.8146C264.953 25.7112 281.949 25.8852 283.76 26.5523C284.368 27.4576 284.414 27.9347 284.389 28.9852L283.478 29.5874C279.844 30.293 263.922 31.0579 261.093 29.249C260.511 28.8769 260.602 28.6564 260.46 28.0831C260.829 26.9829 261.198 26.578 262.144 25.8146Z" fill="black"/>
<path d="M216.337 33.6936C217.987 39.7083 223.169 43.5957 228.829 46.6892C244.631 55.3243 261.973 56.5094 279.435 60.1931L282.026 60.5411C287.14 61.3045 292.228 62.0871 297.413 62.3622C298.134 62.4007 297.831 62.3598 298.499 62.5137C301.03 62.5137 303.489 62.662 306.001 62.8673L314.759 63.0902V70.4432V76.2069V85.433V89.2129V96.4993V151.981C310.117 149.888 305.208 148.42 300.388 146.699L286.342 143.478L284.022 143.131C279.653 141.182 269.566 140.691 264.58 141.144C262.673 140.945 260.752 140.817 258.839 140.66C256.294 140.736 253.612 141.006 251.126 140.447C249.794 141.29 249.078 141.761 247.42 141.733C244.694 140.337 230.563 143.088 227.102 143.922L226.242 144.136C223.142 144.713 219.794 145.244 216.852 146.313L216.459 146.393C215.233 144.575 216.797 132.584 216.808 129.378L216.771 65.4212C216.735 61.6654 216.229 57.9311 216.204 54.1841C216.159 47.3243 216.604 40.5903 216.337 33.6936Z" fill="black"/>
<path d="M242.006 115.28L243.293 115.741C244.179 116.844 244.168 117.299 244.356 118.62C243.657 118.421 243.024 118.119 242.364 117.834C241.737 116.798 241.9 116.432 242.006 115.28Z" fill="#060626"/>
<path d="M302.027 131.786C302.901 131.971 302.981 131.998 303.676 132.582C303.551 133.37 303.391 133.754 302.874 134.402C301.912 134.656 301.823 134.772 300.798 134.558C300.727 133.441 301.431 132.745 302.027 131.786Z" fill="#060626"/>
<path d="M240.018 107.299C241.849 107.73 243.536 108.315 244.552 109.765L244.296 110.04L243.057 109.894L241.521 111.262L240.601 111.037C239.96 109.882 240.066 108.564 240.018 107.299Z" fill="#0D0D0D"/>
<path d="M238.406 60.7449L239.029 60.7818C239.117 60.9718 239.563 61.9637 239.676 62.1169C239.784 62.2636 239.96 62.3598 240.102 62.4809C240.232 63.9162 239.783 64.0381 238.808 65.127C237.925 65.6362 237.974 65.6482 236.943 65.4943C236.352 64.5689 236.447 64.2899 236.496 63.205C237.166 62.6373 237.632 62.1618 238.04 61.4233C238.165 61.198 238.284 60.9711 238.406 60.7449Z" fill="#0D0D0D"/>
<path d="M299.418 97.1738C300.273 97.3349 301.315 97.4488 302.108 97.78C303.382 98.314 303.89 99.6234 304.443 100.706C303.008 100.904 301.511 101.311 300.148 100.755C299.24 99.71 299.436 98.4375 299.418 97.1738Z" fill="#0D0D0D"/>
<path d="M314.759 89.213V96.4994C313.859 96.8746 314.073 96.9155 312.986 96.7151C312.434 95.4714 313.574 95.7801 313.53 94.6591C313.467 93.1613 312.158 92.2167 312.184 90.6402C312.879 89.7221 313.654 89.5553 314.759 89.213Z" fill="#0D0D0D"/>
<path d="M298.5 62.5137C301.03 62.5137 303.489 62.6621 306.001 62.8673C305.885 62.8826 305.77 62.8938 305.654 62.913C299.863 63.8761 302.981 64.8319 300.727 67.9278L299.925 67.5309C298.972 66.0042 298.82 64.2217 298.5 62.5137Z" fill="#0D0D0D"/>
<path d="M302.901 71.727C303.444 71.6613 304.015 72.0012 304.416 72.2843C305.084 72.7558 304.888 73.1431 304.95 73.8599C304.353 75.0467 304.326 75.2503 303.115 75.9183C301.573 75.3089 300.148 74.5736 299.498 73.1423C300.397 71.9539 301.386 72.0582 302.901 71.727Z" fill="#0D0D0D"/>
<path d="M248.748 104.335C248.948 104.473 249.176 104.582 249.345 104.749C249.483 104.887 249.546 105.073 249.652 105.231C250.415 106.373 251.333 106.488 252.674 106.766L251.45 109.553C251.362 109.467 251.294 109.361 251.187 109.294C250.693 108.985 250.187 108.862 249.673 108.5C247.808 107.184 246.789 107.339 245.193 106.413L245.748 105.644C246.521 105.567 247.286 105.471 248.056 105.362L248.748 104.335Z" fill="#0D0D0D"/>
<path d="M299.319 83.1702C299.586 81.694 300.522 80.7029 301.84 79.784L304.095 80.476C305.244 82.7605 303.025 83.2239 305.386 85.8019L305.271 86.2004C302.509 85.2799 303.605 83.6369 299.319 83.1702Z" fill="#1A1A1A"/>
<path d="M241.675 67.5823C243.135 68.9599 244.466 69.2229 246.255 70.1209C246.338 70.4786 246.447 71.3213 246.648 71.6789C247.133 72.5401 249.448 72.1873 250.566 72.6893C250.071 73.3396 247.641 73.7942 246.713 74.0604C246.728 74.3507 246.591 74.6313 246.512 74.9136L246.197 73.8383L245.578 73.7613L245.818 72.5529C244.576 71.8024 243.468 71.5707 242.013 71.2772C241.206 71.1152 241.254 70.9837 240.739 70.4425C240.674 69.2429 241.072 68.5998 241.675 67.5823Z" fill="#0D0D0D"/>
<path d="M226.095 71.3116C228.974 71.5057 230.045 72.0141 232.012 73.8279L231.981 74.5078C230.807 75.1429 229.687 74.8454 228.404 74.6818L227.685 74.2849L226.057 74.932C225.213 74.75 224.781 74.6441 224.106 74.1149C223.426 73.5809 223.627 73.4373 223.598 72.6868C224.311 71.7623 224.96 71.6572 226.095 71.3116Z" fill="#0D0D0D"/>
<path d="M247.333 77.4819C247.566 77.3343 247.878 77.3295 248.154 77.2693C248.304 77.9782 248.379 78.5355 248.847 79.1433C248.938 79.2611 249.048 79.367 249.149 79.4784C248.971 80.6075 248.137 79.9227 247.374 80.504C246.98 80.8047 246.148 82.8102 245.877 83.3209C245.679 83.0796 245.479 82.839 245.265 82.6089C244.211 81.4767 244.067 81.4342 242.402 81.3283L240.92 81.8784C240.04 81.6635 239.441 81.5128 238.521 81.5336C237.631 81.5545 238.12 81.641 237.289 81.3564C237.322 80.8416 237.2 80.5818 237.644 80.1929C238.927 79.0687 243.162 77.6118 244.935 77.805C245.733 77.8924 245.837 77.9333 246.59 77.7128C246.84 77.6398 247.086 77.5588 247.333 77.4819Z" fill="#0D0D0D"/>
<path d="M252.674 106.766C256.218 97.9577 259.82 89.1689 263.48 80.3998C264.86 77.0922 265.978 73.2682 267.765 70.1458C268.209 69.3704 268.651 68.9895 269.517 68.5669C270.557 68.413 271.334 68.3344 272.279 68.858C273.489 69.5283 274.192 71.1401 274.706 72.2851C280.184 84.5157 283.649 97.622 288.107 110.165L295.596 130.974C296.647 133.947 298.268 137.368 298.643 140.452C298.776 141.591 298.678 141.668 297.876 142.454C296.469 142.696 295.631 142.632 294.366 141.993C293.965 141.972 293.564 141.955 293.161 141.916C291.435 141.751 289.722 140.903 288.62 139.691C287.989 140.96 287.469 142.521 286.342 143.478L284.022 143.131C279.654 141.183 269.567 140.691 264.581 141.144C262.673 140.945 260.752 140.817 258.84 140.66C256.294 140.736 253.612 141.006 251.127 140.447C248.701 140.622 246.476 140.62 244.051 140.446C246.02 139.712 248.297 140.282 250.332 139.585C249.368 138.644 247.828 138.265 246.578 137.648L246.834 137.118C248.546 137.798 250.402 137.943 252.043 138.636C252.671 138.181 253.17 137.586 253.697 137.039C253.667 136.276 253.631 135.602 253.767 134.845C253.905 134.081 254.818 133.724 255.483 133.269C254.805 132.203 254.599 132.71 253.715 132.088C253.44 131.895 251.293 126.95 250.278 125.821C249.249 128.195 246.497 132.563 246.596 134.965C245.908 135.25 245.171 135.59 244.438 135.763C243.39 136.01 242.803 135.841 241.897 135.389C241.2 131.942 249.659 113.887 251.45 109.554L252.674 106.766Z" fill="black"/>
<path d="M269.677 78.6357L270.484 76.8629L270.852 76.741C270.904 76.9911 270.909 77.2525 271.007 77.4907C271.108 77.7369 271.318 77.9365 271.44 78.1747C274.116 83.4036 275.349 89.6387 277.582 95.0873C279.861 102.699 282.726 110.074 285.255 117.609C285.753 119.034 286.418 120.524 286.712 121.989L285.236 122.89C284.198 123.034 283.179 123.196 282.141 122.965C280.783 122.662 280.631 122.601 279.96 121.518C279.106 120.461 278.871 119.166 278.511 117.921C277.336 117.302 275.271 117.55 273.875 117.542C273.248 116.154 273.095 114.397 272.091 113.201C271.554 112.562 271.474 112.702 270.662 112.571C269.423 113.143 268.659 113.657 267.666 114.538C267.331 114.943 266.986 115.34 266.63 115.73C265.76 116.67 265.16 117.043 263.802 117.136C261.988 116.216 261.428 114.659 260.832 112.927L259.656 113.295L259.528 114.228C260.638 116.178 260.549 118.387 259.816 120.531C259.413 121.71 258.572 122.349 257.497 123.037C256.4 123.22 255.358 123.579 254.354 122.98C253.625 122.545 253.885 122.742 253.352 122.076L252.003 121.674C252.64 120.215 253.291 118.76 253.955 117.311C255.336 113.357 257.036 109.458 258.593 105.555L261.094 99.5977L269.677 78.6357Z" fill="black"/>
<path d="M269.677 78.6357L270.484 76.8629L270.852 76.741C270.903 76.9911 270.909 77.2525 271.007 77.4907C271.107 77.7369 271.318 77.9365 271.44 78.1747C274.115 83.4036 275.348 89.6387 277.581 95.0873C275.608 95.5708 273.782 96.355 271.917 97.0968C270.735 96.6509 270.457 96.614 269.737 95.6815C269.759 94.2414 271.334 92.7411 272.128 91.4846C271.754 89.8945 270.682 91.0789 269.562 89.9314C269.563 88.4817 269.495 86.8972 269.777 85.4707C270.082 83.9352 271.435 82.5921 271.338 80.9916C271.259 79.6701 270.712 79.4424 269.677 78.6357Z" fill="#060626"/>
<path d="M267.666 114.538C268.658 113.657 269.423 113.143 270.661 112.571C271.473 112.702 271.554 112.562 272.09 113.201C273.094 114.397 273.247 116.154 273.875 117.542C275.271 117.55 277.335 117.302 278.51 117.921C278.87 119.166 279.105 120.461 279.96 121.518C280.631 122.601 280.782 122.662 282.141 122.965C283.178 123.196 284.197 123.034 285.235 122.89L286.711 121.989C289.374 128.623 291.643 135.378 294.365 141.993C293.964 141.972 293.564 141.955 293.16 141.916C291.434 141.751 289.722 140.903 288.62 139.691C287.988 140.96 287.469 142.521 286.342 143.478L284.022 143.131C279.653 141.182 269.566 140.691 264.58 141.144C262.673 140.945 260.752 140.817 258.839 140.66C256.294 140.736 253.612 141.006 251.126 140.447C248.7 140.622 246.475 140.62 244.05 140.446C246.019 139.712 248.296 140.282 250.331 139.585C249.367 138.644 247.828 138.265 246.577 137.648L246.834 137.118C248.545 137.798 250.402 137.943 252.042 138.636C252.67 138.181 253.169 137.586 253.696 137.039C253.666 136.276 253.631 135.602 253.767 134.845C253.904 134.08 254.817 133.724 255.483 133.269C254.804 132.203 254.598 132.71 253.714 132.088C253.44 131.895 251.293 126.95 250.277 125.821L252.002 121.674L253.352 122.076C253.884 122.742 253.624 122.545 254.353 122.98C255.357 123.579 256.4 123.22 257.496 123.037C258.571 122.349 259.412 121.71 259.815 120.531C260.549 118.387 260.637 116.178 259.527 114.228L259.655 113.295L260.831 112.927C261.427 114.659 261.988 116.216 263.802 117.136C265.159 117.043 265.759 116.67 266.629 115.73C266.985 115.34 267.331 114.943 267.666 114.538Z" fill="#060626"/>
<path d="M284.022 143.131C284.261 142.471 284.205 142.74 284.291 142.138C284.363 141.633 284.402 141.092 284.562 140.601C284.94 139.433 285.495 139.067 286.589 138.434C287.709 138.772 287.848 138.881 288.62 139.691C287.988 140.96 287.469 142.521 286.342 143.478L284.022 143.131Z" fill="#040209"/>
<path d="M257.728 135.805C259.785 135.834 261.992 135.679 263.94 136.332L264.063 136.9C262.601 138.479 261.252 139.518 259.225 140.423C259.086 140.486 258.968 140.581 258.839 140.66C256.294 140.736 253.612 141.006 251.126 140.447C248.7 140.622 246.475 140.62 244.05 140.446C246.019 139.712 248.296 140.282 250.331 139.585C249.367 138.644 247.828 138.265 246.577 137.648L246.834 137.118C248.545 137.798 250.402 137.943 252.042 138.636L252.37 138.861C253.778 138.794 253.89 137.755 255.258 137.326C255.532 138.139 255.867 138.908 256.227 139.692L257.055 139.879L258.109 139.217C257.975 138.081 257.848 136.943 257.728 135.805Z" fill="#020119"/>
<path d="M4.43458 40.3249C2.24286 37.7823 0.166086 34.4498 0.0092798 31.1823C-0.167127 27.4945 2.19743 24.0923 4.8961 21.4935C20.133 6.81802 63.3759 0.629342 85.2611 0.0800741C115.115 -0.668854 173.707 3.60101 196.03 22.8767C199.515 25.886 202.354 29.346 202.464 33.8284C200.895 39.4036 196.185 43.8138 190.834 46.7245C185.118 49.8317 177.409 51.105 172.657 53.7495C166.735 55.1367 160.771 56.6394 154.733 57.5575C141.4 60.0601 126.67 61.6454 113.055 61.7809C107.384 61.8378 101.693 61.9589 96.0237 61.8939C92.6212 61.8546 87.8769 61.0824 84.633 61.7143L84.3995 61.9011C81.7811 60.9662 77.7255 61.0728 74.8691 60.7569C68.1407 60.3961 61.1993 58.9215 54.5208 57.9793L49.8781 57.1405C45.1249 56.4413 40.4029 55.5008 35.6782 54.658C32.8032 54.9908 30.1018 55.3428 27.2018 55.1167C26.9523 55.0966 26.7029 55.0854 26.4525 55.067C26.3028 55.0557 26.1531 55.0413 26.0035 55.0293C24.5601 53.3053 23.1061 51.6254 21.9033 49.7531C15.8645 46.6171 10.0012 44.2412 4.43458 40.3249Z" fill="white"/>
<path d="M121.513 22.6578C121.776 23.5727 122.021 25.2189 122.952 25.7778C123.132 25.886 123.338 25.955 123.53 26.044C123.148 26.2011 122.47 26.4946 122.08 26.5844C120.974 26.841 120.577 26.5852 119.636 26.1394L119.345 25.2469C119.693 23.9512 120.436 23.4733 121.513 22.6578Z" fill="black"/>
<path d="M21.9034 49.7531C26.5301 51.2871 30.9697 53.355 35.6783 54.658C32.8033 54.9908 30.1019 55.3428 27.2019 55.1167C26.9524 55.0966 26.703 55.0854 26.4526 55.067C26.3029 55.0557 26.1532 55.0413 26.0036 55.0293C24.5602 53.3053 23.1062 51.6254 21.9034 49.7531Z" fill="#1A1A1A"/>
<path d="M99.2892 12.3372C100.496 12.4141 102.103 12.4069 102.905 13.3603C104.705 15.5005 103.423 20.3083 103.161 22.8213C101.755 22.8847 100.938 23.086 99.6749 22.4918C97.6578 19.6444 98.7519 15.5021 99.2892 12.3372Z" fill="black"/>
<path d="M121.513 22.6578C124.163 21.2329 129.716 17.6278 132.918 18.7207C133.185 18.8121 133.405 18.9877 133.649 19.1208C133.653 20.3028 133.102 20.9988 132.166 21.8166C129.751 23.9263 126.582 24.9062 123.53 26.044C123.338 25.955 123.132 25.886 122.952 25.7778C122.021 25.2189 121.776 23.5727 121.513 22.6578Z" fill="black"/>
<path d="M99.9317 39.1431L101.385 39.4213C103.736 41.1252 103.772 45.5539 104.385 48.1118L102.311 52.0015C101.046 51.9582 100.536 51.8853 99.521 51.1917C98.2835 49.2496 98.3663 46.9459 98.5837 44.7769C98.778 42.8356 98.7272 40.827 99.9317 39.1431Z" fill="black"/>
<path d="M70.5311 17.4329C70.9329 17.4714 71.1102 17.4762 71.4826 17.55C75.2986 18.2989 80.5507 20.913 82.664 23.8533C82.7317 25.178 82.4421 25.2173 81.5343 26.2028C78.5131 25.255 75.4562 24.142 72.6498 22.754C70.8581 21.868 69.0851 21.0252 68.4971 19.1914C69.1288 18.1393 69.3693 18.0463 70.5311 17.4329Z" fill="black"/>
<path d="M80.7158 36.594C81.3119 36.5507 81.7966 36.6429 82.3828 36.7319C83.3433 37.4503 83.4885 37.4167 83.6872 38.5072C81.8447 41.3401 74.5461 43.5564 71.2816 45.1273C70.6526 45.4368 71.0527 45.2892 70.0263 45.4231C69.7314 45.1561 69.2191 44.7215 69.0177 44.404C68.6801 43.87 68.5117 43.2381 68.7602 42.6624C70.0361 39.6979 77.5592 37.7342 80.7158 36.594Z" fill="black"/>
<path d="M118.567 36.0239C122.784 37.4504 129.98 39.1735 132.53 42.6648C132.544 44.0303 132.058 44.4553 131.28 45.602C128.241 45.2748 119.309 40.7091 116.836 38.8287C116.967 37.6789 117.812 36.9075 118.567 36.0239Z" fill="black"/>
<path d="M141.637 28.7919C144.762 28.286 155.73 28.7094 158.267 29.949C159.307 30.4574 159.646 30.8014 159.964 31.8061L159.347 32.4059C157.757 32.9335 156.63 33.0209 154.946 32.8982C150.363 32.9704 140.549 33.3368 136.438 31.9424C135.354 31.5744 135.065 31.2721 134.647 30.3323L135.03 29.7558C137.064 28.8032 139.388 28.8986 141.637 28.7919Z" fill="black"/>
<path d="M41.5015 28.2226C48.2424 28.0358 55.5954 27.764 62.2908 28.5289C63.8918 28.7118 65.0224 28.8713 66.0363 30.0388C65.8198 31.3009 65.3655 31.3683 64.2964 32.1573C57.9751 32.3233 51.1077 32.6152 44.8328 31.9601C43.3681 31.8069 42.0753 31.681 41.1042 30.5728C40.9215 29.423 40.9696 29.2867 41.5015 28.2226Z" fill="black"/>
<path d="M202.464 33.8284C203.093 38.9931 203.62 44.6646 202.75 49.8221L202.46 53.2331C203.049 74.7917 202.68 96.3687 203.033 117.934C203.154 125.248 205.308 142.056 203.596 148.216C203.802 149.299 203.775 149.777 204.575 150.631L204.371 150.762C203.848 152.346 203.545 153.88 203.3 155.516C202.435 155.827 201.762 156.175 200.816 156.107L200.238 154.845C199.135 154.241 198.578 154.426 197.31 154.489C198.034 154.055 198.393 153.751 198.844 153.079L198.355 151.875C195.643 152.527 194.559 155.164 192.267 155.57C191.805 155.212 191.496 155.081 191.277 154.557C191.142 154.658 191.008 154.759 190.872 154.858C189.866 155.585 188.733 156.111 187.95 157.053C186.103 159.854 181.33 161.447 178.592 163.633C169.666 170.76 161.278 178.339 154.908 187.493C154.191 188.508 153.714 189.673 152.327 190.035C151.836 190.164 151.039 190.078 150.526 190.077C149.774 190.076 148.472 190.066 147.889 190.489C135.99 190.837 118.417 190.627 106.845 188.67C105.796 189.8 104.946 190.356 105.062 191.957C105.285 195.003 106.108 198.005 106.24 201.045C106.479 206.54 105.961 212.112 105.809 217.608C105.666 222.751 105.849 227.95 105.429 233.081L105.766 245.581C106.063 249.132 106.679 253.035 106.221 256.571C105.927 258.847 104.239 261.925 104.783 264.137C105.331 266.369 119.656 283.256 122.233 286.533C129.826 296.193 136.644 306.251 144.254 315.901L159.575 335.245C162.597 339.075 165.789 342.674 168.493 346.702C168.557 346.798 168.631 346.887 168.701 346.979C161.796 346.977 154.867 347.08 147.968 346.846C141.022 337.017 133.058 327.86 125.82 318.217C117.62 307.294 110.074 295.701 101.435 285.086C100.23 283.605 98.1049 280.668 96.2366 280.129C90.2994 281.768 80.2103 297.261 76.3472 302.063C75.2576 303.432 74.1884 304.784 73.2289 306.232C63.2708 318.574 53.0481 335.254 41.774 346.131C35.59 346.443 29.5931 346.592 23.4197 345.994L74.0281 280.743C77.1375 276.694 80.05 272.363 83.6396 268.649C84.8388 267.407 88.0613 264.862 88.4551 263.352C88.717 262.35 87.884 248.835 87.9989 246.15C87.7628 241.792 86.3623 238.562 87.0679 234.05C88.26 219.951 87.1606 203.211 86.7293 188.934C79.4093 188.941 72.0403 189.103 64.7275 188.873C53.2726 188.513 41.8445 186.857 30.3923 186.474C25.1188 186.298 14.814 187.61 10.3869 185.862C8.64337 185.173 7.96095 184.013 7.19028 182.526C6.88647 180.359 6.9399 178.133 6.88733 175.95C6.49175 174.534 6.50512 173.005 6.39999 171.548C5.30591 169.839 6.0338 164.119 6.08013 161.936C5.51705 157.838 5.4565 152.826 6.0071 148.733C6.09441 148.086 6.163 147.441 6.23517 146.794C5.44579 146.342 4.43992 145.811 4.11651 144.99C3.26387 142.831 5.12414 140.107 6.0828 138.144C11.048 130.06 15.0537 121.231 19.3632 112.837L41.7607 69.1018C43.0268 66.5912 44.4745 64.1752 45.9188 61.7456C46.6921 61.2164 47.6276 60.8026 48.4668 60.3576L48.8509 58.3056L49.2384 57.9921L49.8781 57.1406L54.5208 57.9793C61.1993 58.9215 68.1407 60.3961 74.8691 60.7569C77.7254 61.0728 81.781 60.9662 84.3995 61.9011L84.633 61.7143C87.8769 61.0825 92.6212 61.8546 96.0237 61.8939C101.693 61.9589 107.384 61.8378 113.055 61.7809C126.67 61.6454 141.4 60.0601 154.733 57.5575C160.771 56.6394 166.735 55.1367 172.657 53.7495C177.409 51.105 185.118 49.8317 190.834 46.7245C196.185 43.8138 200.895 39.4036 202.464 33.8284ZM202.464 33.8284C200.895 39.4036 196.185 43.8138 190.834 46.7245C185.118 49.8317 177.409 51.105 172.657 53.7495C166.735 55.1367 160.771 56.6394 154.733 57.5575C141.4 60.0601 126.67 61.6454 113.055 61.7809C107.384 61.8378 101.693 61.9589 96.0237 61.8939C92.6212 61.8546 87.8769 61.0825 84.633 61.7143L84.3995 61.9011C81.781 60.9662 77.7254 61.0728 74.8691 60.7569C68.1407 60.3961 61.1993 58.9215 54.5208 57.9793L49.8781 57.1406L49.2384 57.9921L48.8509 58.3056L48.4668 60.3576C50.2817 61.3022 51.1495 62.0375 52.0137 63.8047C58.4766 83.7403 66.4497 103.303 73.4365 123.098C74.5608 126.215 75.6273 129.363 76.9512 132.417C80.4616 142.886 84.5394 153.35 88.3972 163.727C91.0968 170.99 93.4791 178.586 96.8736 185.603C101.135 178.074 103.208 168.943 106.139 160.89L116.564 131.616C119.437 123.725 122.569 115.931 125.217 107.972C125.635 105.973 126.765 103.799 127.542 101.87C128.594 98.8512 129.746 95.8555 130.854 92.8526L131.059 92.2993C134.423 84.5358 136.694 72.0766 140.661 65.483C141.562 63.986 142.652 63.7654 144.349 63.3284C146.315 64.7204 147.517 65.9793 148.766 67.9174C157.927 87.428 167.392 106.923 177.034 126.246C181.703 135.603 187.887 144.754 191.277 154.557C191.496 155.081 191.805 155.212 192.267 155.57C194.559 155.164 195.643 152.527 198.355 151.875L198.844 153.079C198.393 153.751 198.034 154.055 197.31 154.489C198.578 154.426 199.135 154.241 200.238 154.845L200.816 156.107C201.762 156.175 202.435 155.827 203.3 155.516C203.545 153.88 203.848 152.346 204.371 150.762L204.575 150.631C203.775 149.777 203.802 149.299 203.596 148.216C205.308 142.056 203.154 125.248 203.033 117.934C202.68 96.3687 203.049 74.7917 202.46 53.2331L202.75 49.8221C203.62 44.6646 203.093 38.9931 202.464 33.8284ZM87.0679 234.05C86.3623 238.562 87.7628 241.792 87.9989 246.15C88.4702 245.067 88.5237 244.148 88.7768 243.043C88.9888 242.116 89.0324 241.746 89.9688 241.216C90.6833 241.515 91.2259 241.718 92.0029 241.876L92.1766 241.296L90.8615 240.52L90.7556 238.978C89.3835 237.504 88.6262 236.021 87.7905 234.28C87.6569 235.296 87.9589 237.09 87.3031 237.85L87.0679 234.05ZM104.471 202.808C103.408 205.799 102.984 207.495 104.22 210.57C105.706 208.281 105.547 205.983 105.136 203.432L104.471 202.808Z" fill="#060626"/>
<path d="M132.279 104.026C132.475 104.075 132.667 104.135 132.866 104.175C133.808 104.367 134.479 104.286 135.425 104.197L135.678 104.701C134.88 105.625 134.603 106.202 133.246 106.496C132.641 106.628 131.877 106.591 131.251 106.604L132.279 104.026Z" fill="black"/>
<path d="M52.7099 80.7142L53.0512 82.1126C52.3455 82.7541 51.7058 83.4044 50.7837 83.7957C50.1342 84.0723 50.0104 83.8454 49.4063 83.6088C49.1675 82.819 49.0891 82.3532 49.6281 81.5882C50.3489 80.5666 51.5392 80.7807 52.7099 80.7142Z" fill="#020119"/>
<path d="M133.868 164.848C132.528 164.967 132.424 165.054 131.302 164.419C130.903 163.294 130.924 163.245 131.348 162.124C132.43 161.298 132.537 161.329 133.966 161.235C134.351 162.497 134.901 163.22 134.169 164.434C134.081 164.58 133.968 164.71 133.868 164.848Z" fill="black"/>
<path d="M104.471 202.808L105.137 203.432C105.547 205.983 105.706 208.281 104.221 210.57C102.984 207.495 103.408 205.799 104.471 202.808Z" fill="#0D0D0D" fill-opacity="0.988235"/>
<path d="M68.2833 124.497L69.2589 126.748C67.6605 127.428 66.2333 127.649 64.4754 127.711L63.6807 126.792L63.5756 126.804C64.2358 126.14 64.5725 125.743 65.5347 125.436C66.4711 125.137 67.3647 124.844 68.2833 124.497Z" fill="#0D0D0D"/>
<path d="M166.605 146.564C167.542 147.066 167.269 146.787 167.817 147.544C168.958 149.12 169.637 149.855 169.203 151.722C168.109 151.869 167.274 152.039 166.209 151.651C165.355 150.102 166.193 148.213 166.605 146.564Z" fill="black"/>
<path d="M95.8136 230.788L96.7928 230.799C96.9184 231.177 97.052 231.553 97.158 231.937C97.526 233.256 97.5705 233.94 96.7856 235.117C95.3405 235.54 94.8915 235.196 93.4838 234.758L92.4147 234.704L92.2097 234.236C93.0597 233.448 93.8152 232.139 94.9244 231.692C95.0527 231.641 95.1944 231.622 95.3289 231.588L95.8136 230.788Z" fill="black"/>
<path d="M157.809 98.6235L159.923 102.879C158.935 103.536 158.216 103.801 157.065 104.115C155.977 103.784 156.011 103.81 155.441 102.912C155.716 102.108 155.938 101.502 155.857 100.655L154.479 99.8864L154.548 99.2714C155.527 98.5641 156.615 98.6628 157.809 98.6235Z" fill="black"/>
<path d="M140.996 98.7478C141.291 98.7903 141.799 98.8416 142.089 98.9595C143.481 99.5256 144.987 101.539 145.589 102.808C144.853 103.755 143.488 103.398 142.185 104.769C142.019 104.999 141.482 105.401 141.254 105.597L140.829 105.167C141.023 104.276 141.155 103.468 141.167 102.56C140.322 101.826 139.664 101.223 139.04 100.315L139.261 99.5729L140.996 98.7478Z" fill="black"/>
<path d="M139.853 116.633L141.061 117.881C142.661 118.204 142.151 117.269 143.514 117.313C144.116 119.291 141.913 120.912 141.157 122.818C141.108 122.94 141.063 123.062 141.017 123.185C140.844 123.082 140.667 122.983 140.497 122.877C139.246 122.1 137.437 120.698 137.16 119.324C137.508 118.676 137.505 118.256 138.355 118.009C138.587 117.942 138.837 117.942 139.078 117.909L139.853 116.633Z" fill="black"/>
<path d="M105.767 245.581C105.205 245.256 104.995 245.126 104.684 244.585C103.295 242.17 102.3 239.124 103.101 236.429C103.524 235.005 103.997 233.813 105.429 233.081L105.767 245.581Z" fill="#040209"/>
<path d="M87.0683 234.05L87.3035 237.85C87.9593 237.09 87.6572 235.296 87.7909 234.28C88.6266 236.021 89.3839 237.504 90.7559 238.978L90.8619 240.52L92.177 241.296L92.0032 241.876C91.2263 241.718 90.6837 241.515 89.9692 241.216C89.0328 241.746 88.9892 242.116 88.7771 243.043C88.5241 244.148 88.4706 245.067 87.9993 246.15C87.7632 241.792 86.3627 238.562 87.0683 234.05Z" fill="#060626" fill-opacity="0.980392"/>
<path d="M55.0735 118.49L55.3684 118.778C54.9969 119.763 55.0753 119.551 54.1951 120.042C53.3184 119.632 53.5153 119.826 52.9593 119.253C52.2849 118.557 51.7637 117.864 50.9218 117.313C50.9351 118.086 50.9815 118.897 50.8843 119.665C50.7534 120.702 50.5262 121.158 49.6281 121.786L48.5706 121.422C48.02 120.741 47.6226 120.271 47.4711 119.407C47.2627 118.217 47.5985 117.296 48.3781 116.361C49.041 115.566 48.8396 116 49.0588 115.203C47.6974 115.126 46.3459 115.348 45.3899 114.434L45.7801 113.705C46.7602 113.366 47.4025 113.103 48.4752 113.104L48.6908 114.229L49.2664 114.505L50.5377 113.936C52.2795 114.539 53.158 117.398 55.0735 118.49Z" fill="#0D0D0D"/>
<path d="M124.335 146.935L124.941 146.656L125.675 146.886L125.353 147.111C126.707 147.986 129.737 148.021 131.407 148.137C132.228 148.194 132.524 148.223 133.312 148.511L133.614 149.435C132.853 150.838 131.699 151.33 130.316 152.205C130.11 151.901 129.832 151.468 129.579 151.207C128.828 150.433 128.627 150.336 127.569 150.357C126.98 151.019 126.363 151.644 125.726 152.269C124.634 152.425 124.459 152.301 123.432 151.893C122.896 150.902 123.23 150.478 123.481 149.444C122.5 148.426 122.314 148.431 122.376 147.063L122.912 146.678L123.472 147.444L124.335 146.935Z" fill="black"/>
<path d="M133.966 161.235C134.138 161.145 134.311 161.056 134.481 160.963C137.434 159.36 138.197 157.398 141.734 156.409L142.355 156.7C142.385 158.181 141.526 159.582 140.835 160.895C139.492 161.361 139.16 161.268 138.502 162.468C138.767 163.529 139.106 163.858 138.492 164.86C137.644 164.899 137.367 164.826 136.594 164.576C136.209 165.316 136.195 165.637 136.162 166.433C135.316 166.923 135.496 166.98 134.402 166.885C133.73 166.102 133.717 166.109 133.747 165.122C134.227 164.889 134.616 164.722 135.14 164.57L133.868 164.848C133.968 164.71 134.082 164.58 134.169 164.435C134.901 163.221 134.352 162.497 133.966 161.235Z" fill="#0D0D0D"/>
<path d="M6.88745 175.95C7.34183 176.626 7.76237 177.303 8.19804 177.986C8.61856 178.646 9.14599 179.033 9.77856 179.52L9.66187 179.364L10.5109 179.896C10.7622 179.764 11.0099 179.628 11.2647 179.503C12.2893 179 13.0929 179.03 14.2172 179.061C15.2498 179.09 16.9721 178.837 17.733 179.46C17.6412 180.866 17.5779 181.783 16.7431 182.995C15.4993 183.806 14.5006 183.88 13.0323 183.674C11.0616 183.397 9.16117 182.718 7.1904 182.526C6.88658 180.358 6.94002 178.133 6.88745 175.95Z" fill="black"/>
<path d="M6.0803 161.936C6.25047 161.046 6.35115 160.539 6.79217 159.735C7.70272 158.073 7.1539 156.243 8.27471 154.607L9.09974 154.518C10.0094 155.201 10.7168 155.789 10.944 156.893C11.7013 160.586 6.8786 161.242 9.78486 165.499C9.5746 166.224 9.34294 166.932 9.08011 167.644L9.8909 167.889L10.3889 168.409C9.93007 168.749 9.4873 169.023 8.99104 169.318C8.08851 169.855 7.53878 170.498 6.56052 170.936L6.40015 171.548C5.30607 169.839 6.03397 164.119 6.0803 161.936Z" fill="#020119"/>
<path d="M35.4227 96.2123C36.4473 96.5371 37.4772 97.1529 38.0055 98.0213C38.4368 98.7293 37.928 99.2241 37.634 99.9225L37.9013 99.6707L38.6265 100.405C38.8947 100.376 39.1352 100.57 39.382 100.668C39.3357 101.268 39.285 101.867 39.2297 102.466L39.7189 102.549C39.7536 102.016 39.8329 101.628 39.9772 101.117C40.3977 101.135 40.5269 101.112 40.9626 101.294C41.8028 101.644 42.8113 102.565 43.1882 103.314C42.5627 103.982 42.536 103.964 41.5791 104.137L41.0428 103.548L41.1399 104.921L39.3322 106.255L38.3468 106.758C37.585 106.425 37.168 106.381 36.3421 106.304C36.1247 107.085 36.1996 106.902 35.9608 107.519C35.608 108.433 35.7426 108.667 34.7287 109.106C34.0177 108.34 33.8751 108.299 33.8261 107.318L35.3425 106.757C34.938 106.345 34.4355 105.891 34.1174 105.413C33.4947 104.475 33.5455 103.892 33.7548 102.86C34.5317 102.04 34.9817 101.679 36.1078 101.3L36.9827 101.739C36.8999 101.037 36.9961 101.355 36.6513 100.662C35.8619 99.0725 35.4699 97.9564 35.4227 96.2123Z" fill="black"/>
<path d="M78.2068 150.455C76.9631 151.63 76.3724 152.007 74.6163 152.191C74.6867 151.583 75.3763 151.173 75.8334 150.734C76.9773 150.746 76.4561 150.856 77.4112 150.458C77.356 150.073 77.364 149.941 77.1502 149.547C77.0139 149.296 76.1105 148.187 75.8494 148.097C76.0543 148.792 76.0151 148.49 76.0214 149.25C76.0347 150.929 73.8787 150.516 72.691 151.581C72.4754 152.428 72.2429 153.169 71.8473 153.963C70.6819 153.342 69.6761 152.756 68.2942 152.669C67.4986 152.618 67.0504 152.577 66.3181 152.23C66.4473 151.953 66.5667 151.671 66.703 151.396C67.1547 150.487 67.2082 149.682 67.3035 148.701C68.1677 148.125 67.9512 148.127 68.1035 147.228C67.593 146.881 67.8256 147.01 67.2206 146.73C66.58 146.433 66.5952 146.21 66.2744 145.648L66.8865 145.498C68.1588 145.723 69.0622 145.953 70.1251 146.651C70.232 146.721 70.9332 147.199 71.0722 147.263C72.7409 148.029 74.9264 147.184 76.6958 146.834L78.2068 150.455Z" fill="#0D0D0D"/>
<path d="M78.9621 164.501C79.5359 164.612 79.7675 164.782 80.2379 165.082C79.4566 165.95 78.5621 165.583 77.8573 166.739L78.1514 167.523C79.0931 168.231 80.2691 168.882 80.6291 169.981C80.1542 170.768 79.7301 170.944 78.8508 171.33C77.2025 170.743 76.6858 168.818 75.181 167.922L74.9876 168.79C75.7637 170.246 76.5423 171.834 77.6408 173.113C78.1674 173.727 77.9848 174.03 77.9839 174.797L77.5998 174.8C78.1237 174.693 78.5666 174.93 79.0717 175.075V175.611L78.195 176.338C77.6293 175.834 77.787 176.008 77.3629 175.527C76.9459 175.055 73.5425 175.474 72.3763 175.027C71.8132 174.172 71.7063 174.359 71.937 173.3C72.9937 172.651 73.8374 172.241 74.298 171.104C74.1474 170.083 73.9764 169.63 73.269 168.816C72.5357 168.497 71.888 168.214 71.2207 167.789C73.0855 165.641 76.1307 164.952 78.9621 164.501Z" fill="black"/>
<path d="M30.6544 130.556C31.7084 130.774 32.4256 130.782 33.2542 131.439C33.1357 131.616 32.774 132.132 32.7214 132.313C32.1423 134.313 37.0924 135.303 37.8452 137.039C37.3899 138.453 35.7542 140.587 34.4347 141.5C33.7175 141.996 33.6871 141.938 32.7721 141.768C32.3445 140.471 31.8857 139.252 31.2825 138.012L30.9252 138.507C31.2709 139.655 31.5659 140.808 31.8536 141.968C31.5302 143.469 31.3395 144.831 30.3791 146.117L29.8677 146.132C28.7309 144.347 29.881 141.401 29.0222 139.163C28.6792 138.271 28.3771 137.368 28.0599 136.468C28.5553 136.667 29.3028 137.03 29.8615 137.115C30.919 137.278 31.5471 136.941 32.4024 136.444C32.2421 135.109 30.7604 133.925 29.8392 132.838C29.7465 131.565 29.8044 131.592 30.6544 130.556Z" fill="black"/>
<path d="M48.4751 113.104L49.9728 112.871C50.3541 112.067 50.2909 111.794 50.2098 110.946L49.407 112.255C48.9001 111.656 48.5491 111.054 48.1562 110.391L49.6093 110.327L49.8338 109.966C48.2479 110.006 46.5516 110.409 45.0931 109.75C44.5283 108.882 44.4498 108.766 44.4899 107.769C45.0459 107.093 45.5296 106.029 46.5444 106.023C46.7529 106.021 46.9552 106.086 47.1619 106.116C47.8755 106.218 48.386 106.192 49.0961 106.114L50.0842 107.012L50.4103 105.105C52.3365 105.522 55.3782 108.439 56.3956 109.983C57.0184 110.929 57.2857 111.967 56.9204 113.039C56.4776 114.338 55.8032 115.541 54.8445 116.586C54.8837 117.249 54.93 117.837 55.0734 118.49C53.1579 117.398 52.2794 114.539 50.5376 113.936L49.2663 114.505L48.6907 114.229L48.4751 113.104Z" fill="black"/>
<path d="M48.4668 60.3576C50.2817 61.3022 51.1495 62.0375 52.0137 63.8047C58.4766 83.7403 66.4497 103.303 73.4365 123.098C74.5608 126.215 75.6273 129.363 76.9512 132.417C80.4616 142.886 84.5394 153.35 88.3972 163.727C91.0968 170.99 93.4791 178.586 96.8736 185.603C101.135 178.074 103.208 168.943 106.139 160.89L116.564 131.616C119.437 123.725 122.569 115.931 125.217 107.972C125.635 105.973 126.765 103.799 127.542 101.87C128.594 98.8512 129.746 95.8555 130.854 92.8526L131.059 92.2993C134.423 84.5358 136.694 72.0766 140.661 65.483C141.562 63.986 142.652 63.7655 144.349 63.3284C146.315 64.7205 147.517 65.9794 148.766 67.9174C157.927 87.4281 167.392 106.923 177.034 126.246C181.703 135.603 187.887 144.754 191.277 154.557C191.142 154.658 191.008 154.759 190.872 154.858C189.866 155.585 188.733 156.111 187.95 157.053C183.963 152.253 181.461 146.043 178.689 140.62C172.289 128.096 166.322 115.402 159.922 102.879L157.809 98.6235C152.855 88.8409 148.178 78.952 143.777 68.9566C141.946 80.6147 135.907 92.6377 132.279 104.026L131.251 106.604L110.636 163.263C108.406 169.367 102.496 182.636 101.981 188.465C101.859 188.533 101.741 188.606 101.614 188.667C99.3941 189.735 96.601 190.367 94.1572 189.686C90.5756 187.36 80.327 156.136 78.2066 150.455L76.6956 146.834C74.2805 140.12 71.8016 133.425 69.2588 126.748L68.2832 124.497C63.0017 110.432 58.2886 96.1963 53.0508 82.1126L52.7095 80.7142C51.7705 77.8051 50.3725 70.6774 48.0294 68.7313C46.4221 69.983 17.9662 127.011 15.2105 132.522C14.2732 134.395 9.52095 144.97 8.44469 145.971C7.96893 146.414 6.87754 146.638 6.23517 146.794C5.44579 146.342 4.43992 145.811 4.11651 144.991C3.26387 142.831 5.12414 140.107 6.0828 138.144C11.048 130.06 15.0537 121.231 19.3632 112.837L41.7607 69.1018C43.0268 66.5912 44.4745 64.1752 45.9188 61.7456C46.6921 61.2164 47.6276 60.8026 48.4668 60.3576Z" fill="black"/>
<path d="M202.464 33.8284C203.093 38.9931 203.62 44.6646 202.75 49.8221L202.46 53.2331C203.049 74.7917 202.68 96.3687 203.033 117.934C203.154 125.248 205.308 142.056 203.596 148.216C203.802 149.299 203.775 149.777 204.575 150.631L204.371 150.762C203.848 152.346 203.545 153.88 203.3 155.516C202.435 155.827 201.762 156.175 200.816 156.107L200.238 154.845C199.134 154.241 198.578 154.426 197.31 154.489C198.034 154.055 198.393 153.751 198.844 153.079L198.355 151.875C195.643 152.527 194.559 155.164 192.267 155.57C191.805 155.212 191.496 155.081 191.277 154.557C187.887 144.754 181.703 135.603 177.034 126.246C167.392 106.923 157.927 87.428 148.766 67.9174C147.517 65.9793 146.315 64.7204 144.349 63.3284C142.652 63.7654 141.562 63.986 140.661 65.483C136.693 72.0766 134.423 84.5358 131.059 92.2993L130.854 92.8526C129.746 95.8555 128.594 98.8512 127.542 101.87C126.765 103.799 125.635 105.973 125.217 107.972C122.568 115.931 119.437 123.725 116.563 131.616L106.139 160.89C103.208 168.943 101.135 178.074 96.8736 185.603C93.4791 178.586 91.0967 170.99 88.3972 163.727C84.5394 153.35 80.4615 142.886 76.9512 132.417C75.6273 129.363 74.5608 126.215 73.4364 123.098C66.4496 103.303 58.4766 83.7403 52.0137 63.8047C51.1494 62.0375 50.2817 61.3022 48.4668 60.3576L48.8508 58.3056L49.2384 57.9921L49.878 57.1405L54.5208 57.9793C61.1993 58.9215 68.1406 60.3961 74.869 60.7569C77.7254 61.0728 81.781 60.9662 84.3995 61.9011L84.6329 61.7143C87.8769 61.0825 92.6211 61.8546 96.0236 61.8939C101.693 61.9589 107.384 61.8378 113.055 61.7809C126.67 61.6454 141.4 60.0601 154.732 57.5575C160.771 56.6394 166.735 55.1367 172.657 53.7495C177.409 51.105 185.118 49.8317 190.834 46.7245C196.185 43.8138 200.895 39.4036 202.464 33.8284ZM199.249 42.1828C200.306 43.2862 200.992 44.2404 201.604 45.5899L202.324 45.9427C202.364 44.6926 202.663 43.5027 202.001 42.3881C201.005 42.0594 200.297 42.1091 199.249 42.1828Z" fill="#060626"/>
<path d="M199.25 42.1829C200.298 42.1091 201.005 42.0594 202.001 42.3881C202.663 43.5027 202.364 44.6927 202.324 45.9427L201.605 45.5899C200.992 44.2404 200.306 43.2862 199.25 42.1829Z" fill="#0D0D0D" fill-opacity="0.988235"/>
<path d="M202.46 53.2331C201.75 52.9445 200.786 52.5692 200.196 52.1242C199.284 51.4394 199.347 51.1042 199.261 50.1171L200.011 49.4243C201.314 49.2848 201.537 49.3514 202.75 49.8221L202.46 53.2331Z" fill="#1A1A1A"/>
<path d="M86.4114 142.987L86.6128 143.023C87.2801 143.664 86.9389 143.484 87.8975 143.784C88.7582 144.054 88.6414 144.031 89.1885 144.614L88.6967 145.314L86.3535 145.779L86.2386 146.32L85.2336 146.417L84.4005 145.8C84.6936 144.328 85.2772 144.041 86.4114 142.987Z" fill="black"/>
<path d="M113.371 131.529C114.265 131.612 114.279 131.632 115.053 132.168C114.173 133.524 113.692 135.055 112.66 136.283L111.548 135.453C111.664 135.104 111.787 134.757 111.928 134.416L112.096 134.016C111.541 133.51 111.011 132.994 110.481 132.468L110.611 131.96C111.361 131.894 112.063 131.819 112.798 131.661C112.99 131.62 113.18 131.573 113.371 131.529Z" fill="black"/>
<path d="M194.953 97.7086C195.882 98.0117 196.358 97.8817 197.31 97.7663L197.749 97.711C197.865 98.7052 197.979 99.6947 198.041 100.693C197.395 101.112 197.072 101.311 196.254 101.397C195.435 101.484 195.345 101.221 194.72 100.809C194.022 99.2778 194.315 99.1912 194.953 97.7086Z" fill="black"/>
<path d="M107.791 117.415C108.602 117.682 109.306 118.402 109.647 119.144C110.08 120.087 109.993 120.375 109.572 121.23L108.308 121.575C107.841 121.397 107.32 121.216 106.896 120.965C106.007 120.44 105.523 119.913 105.282 118.995C106.019 117.789 106.397 117.872 107.791 117.415Z" fill="black"/>
<path d="M101.011 84.6745C101.31 84.7146 101.542 84.9319 101.799 85.0738C102.402 86.4033 103.051 87.6967 103.364 89.1119L102.884 89.4287L102.621 88.6004C100.187 88.4312 99.1405 88.2684 97.4753 86.5404L97.5956 85.6504C98.5917 84.7868 99.708 84.806 101.011 84.6745Z" fill="black"/>
<path d="M49.878 57.1406L54.5208 57.9793L53.261 58.9904L53.5977 60.1644C54.3524 60.4354 55.0027 60.5981 55.8064 60.7072L55.9828 61.4666C54.0922 62.5018 54.8691 60.4009 52.0137 63.8047C51.1494 62.0375 50.2817 61.3022 48.4668 60.3576L48.8508 58.3057L49.2384 57.9921L49.878 57.1406Z" fill="#1A1A1A"/>
<path d="M99.78 79.2307L100.805 78.9645L101.986 79.594L103.795 78.821L104.509 79.0711C104.722 80.221 103.409 82.2986 103.046 83.5182L102.839 84.2415C101.475 84.0971 100.001 84.0322 98.8374 83.3089C97.8012 82.665 97.5268 82.1575 97.3352 81.0822C98.056 79.776 98.358 79.8201 99.78 79.2307Z" fill="black"/>
<path d="M82.7347 102.103C83.5259 102.209 83.6569 102.415 84.269 102.848C84.2948 103.568 84.3741 103.74 84.007 104.43C83.0127 106.299 80.6143 108.4 78.4555 109.075C77.5673 108.316 77.1351 107.962 76.7948 106.862C77.1948 106.053 77.5993 105.568 78.305 104.969C79.9176 103.601 80.469 102.645 82.7347 102.103Z" fill="black"/>
<path d="M74.8694 60.7569C77.7258 61.0728 81.7814 60.9662 84.3998 61.9011L84.6333 61.7143C84.6805 62.5138 84.6493 63.2186 84.5112 64.006C84.382 64.7437 84.5486 64.698 83.843 65.1623C83.2879 64.7998 82.7409 64.4374 82.1431 64.1327C81.1042 63.6027 81.155 63.6243 80.0467 63.9122C79.4524 65.2753 80.6 65.7083 80.2837 66.9897C78.0118 65.7925 76.1782 62.7824 74.8694 60.7569Z" fill="#0D0D0D"/>
<path d="M186.694 52.5235C187.736 52.6823 188.458 52.9341 189.394 53.3727C190.477 56.7757 190.634 54.8184 192.725 55.9025C192.546 57.309 191.006 58.2166 190.223 59.4491C189.143 61.149 188.379 62.6172 188.943 64.504C189.023 64.8969 188.947 65.2128 188.889 65.6049C187.988 65.4164 187.561 64.7758 186.931 64.1848C186.793 61.5323 188.182 59.1588 188.364 56.544C188.494 54.6677 188.039 53.877 186.694 52.5235Z" fill="black"/>
<path d="M179.674 107.395C180.086 107.453 180.497 107.522 180.909 107.572C182.415 107.754 184.377 108.271 185.372 109.385C185.803 109.868 185.563 110.225 185.475 110.785C185.327 110.884 184.838 111.222 184.682 111.272C184.472 111.338 184.243 111.337 184.023 111.369C184.813 111.859 185.17 112.193 185.188 113.167C185.206 114.076 184.846 114.611 184.238 115.247L183.148 114.997C181.901 113.197 182.489 112.095 182.207 110.238C182.085 110.297 181.965 110.359 181.841 110.412C180.598 110.953 178.931 111.731 177.624 111.328C177.188 110.291 177.065 110.318 177.542 109.315C178.344 108.856 178.915 108.595 179.422 107.845C179.519 107.701 179.591 107.545 179.674 107.395Z" fill="black"/>
<path d="M122.308 72.0878L123.283 72.0902C124.963 73.1254 126.573 74.6417 127.674 76.1748C127.359 77.89 127.081 76.5934 126.173 77.348C125.514 77.894 124.862 80.4118 124.059 81.3989C123.331 81.3941 123.022 81.2907 122.327 81.0116C121.396 80.638 121.59 80.6195 121.246 79.8425C121.715 78.6558 122.519 77.3327 122.073 76.0786C121.443 75.7691 120.824 75.4804 120.166 75.2206C119.977 75.1461 119.786 75.0747 119.597 75.0025L119.87 74.2408C120.942 73.734 121.402 73.2513 122.079 72.3861C122.156 72.2875 122.231 72.1873 122.308 72.0878Z" fill="black"/>
<path d="M144.35 63.3284C144.535 62.351 144.702 61.3968 144.8 60.4081C145.415 59.6118 145.479 59.4234 146.465 59.0738C147.637 59.2983 148.11 59.5453 148.99 60.2758C149.862 62.0174 148.316 63.6411 149.296 65.2809C150.924 65.2055 152.794 64.8648 154.069 65.8382C153.855 66.7523 153.523 67.5533 152.585 68.093C152.128 68.3568 151.847 68.4089 151.36 68.5444C151.143 68.4739 150.928 68.4001 150.711 68.3328C150.038 68.1251 149.463 68.0072 148.766 67.9174C147.517 65.9793 146.315 64.7204 144.35 63.3284Z" fill="black"/>
<path d="M109.56 90.087C110.732 89.747 111.687 89.2434 112.899 89.5241C113.043 90.0726 113.109 90.3476 113.034 90.9177C114.085 90.9426 113.686 91.0123 114.671 90.7285C115.543 90.4767 115.094 90.4486 115.826 90.6427C115.251 92.6256 113.97 94.2574 112.369 95.6839C111.009 95.817 109.482 96.0488 108.116 95.9044C107.161 95.8034 106.202 95.267 105.675 94.5397C104.964 93.5598 104.636 92.1181 104.947 90.9939C106.373 90.8889 107.589 92.155 109.096 92.442C109.506 91.4413 109.114 90.884 108.812 89.8833L109.56 90.087Z" fill="black"/>
<path d="M197.864 151.104C197.807 149.959 197.611 148.777 198.064 147.684L199.341 147.178C199.303 146.111 199.049 146.2 198.243 145.485L198.317 144.635C199.139 144.506 198.786 144.509 199.693 144.609C200.356 144.682 202.889 144.831 203.252 145.245C203.286 146.011 203.341 146.755 203.471 147.512L203.596 148.216C203.802 149.299 203.775 149.777 204.574 150.631L204.37 150.762C203.847 152.346 203.544 153.88 203.299 155.516C202.435 155.828 201.761 156.176 200.815 156.107L200.238 154.845C199.134 154.241 198.577 154.426 197.309 154.489C198.034 154.055 198.393 153.751 198.844 153.079L198.355 151.875L197.864 151.104Z" fill="black"/>
<path d="M197.864 151.104C198.238 151.369 198.624 151.669 199.055 151.859C200.259 152.391 203.096 151.114 204.37 150.762C203.847 152.346 203.544 153.88 203.299 155.516C202.435 155.827 201.761 156.175 200.815 156.107L200.238 154.845C199.134 154.241 198.577 154.426 197.309 154.489C198.034 154.055 198.393 153.751 198.844 153.079L198.355 151.875L197.864 151.104Z" fill="#969696"/>
<path d="M125.71 95.1643C124.74 94.9077 123.552 94.9117 122.539 94.8179C121.638 93.3626 121.738 91.0829 122.022 89.456C123.583 89.1184 124.881 92.5912 126.588 93.2912C127.458 92.5752 127.734 90.9506 128.132 89.8994L128.793 89.6668C129.869 90.3709 130.365 91.2978 131.06 92.2993L130.855 92.8526C129.746 95.8555 128.594 98.8512 127.542 101.87C126.765 103.799 125.635 105.973 125.218 107.972C124.084 107.352 123.429 105.442 122.808 104.362C123.046 102.395 124.013 101.873 125.502 100.493C124.662 100.296 124.068 100.218 123.436 99.6386C122.91 99.1583 123.107 98.7983 123.113 98.1696C123.875 96.9107 124.466 96.0712 125.71 95.1643Z" fill="black"/>
<path d="M154.732 57.5575C160.771 56.6394 166.735 55.1367 172.657 53.7495C172.686 54.0037 172.71 54.2579 172.744 54.5121C172.943 55.9979 174.288 57.1814 174.095 58.636C173.443 59.0546 173.285 59.085 172.528 59.1909L173.089 59.9173L172.43 59.5774L172.452 60.121C172.486 61.2163 172.657 62.1689 171.996 63.1392C170.587 63.225 169.627 62.1778 168.4 62.6845C168.686 63.9017 168.703 64.1535 169.636 65.0484C172.281 65.7259 175.179 63.4736 177.468 64.4085C177.83 65.2865 178.014 65.5656 177.645 66.5053C176.83 68.5789 173.195 72.3388 171.227 73.5745L170.535 73.5087C168.636 71.2106 165.063 72.6098 163.989 70.3214C165.59 69.3303 168.198 69.9758 169.503 68.7096C169.414 67.7322 169.082 67.1067 168.182 66.4845C166.611 65.398 164.19 65.4277 162.403 64.3043C162.202 64.1776 161.991 64.0653 161.785 63.9458C161.025 63.2747 160.313 62.8393 159.376 62.3806C157.534 61.4801 156.945 60.9052 155.931 59.2157L155.328 59.1933C155.404 58.2767 155.349 58.3024 154.732 57.5575Z" fill="black"/>
<path d="M155.931 59.2157C157.955 58.7987 159.27 58.2439 161.21 59.2847C162.461 59.9566 163.141 60.5315 163.88 61.6493C163.921 62.3269 164.129 62.5442 163.58 63.0806C162.996 63.6499 162.582 63.7405 161.785 63.9458C161.025 63.2747 160.314 62.8393 159.376 62.3806C157.534 61.4801 156.945 60.9052 155.931 59.2157Z" fill="#0D0D0D"/>
<path d="M251.126 140.447C253.612 141.006 256.294 140.736 258.839 140.66C260.752 140.817 262.673 140.945 264.581 141.144C269.566 140.691 279.654 141.182 284.022 143.131L286.342 143.478L300.389 146.699C305.209 148.42 310.118 149.888 314.76 151.981V158.587V235.828V238.68V326.973C308.434 328.83 302.438 331.474 296.13 333.399C279.982 338.333 267.009 339.964 249.908 339.657C242.422 339.523 235.042 339.112 227.712 337.637C210.03 334.08 185.394 322.674 172.433 311.442C168.817 308.308 166.022 304.51 162.812 301.057C161.042 299.153 158.138 297.923 156.873 296.126C153.947 289.789 148.907 285.057 146.924 278.257C145.545 271.056 141.988 271.057 140.919 267.683C140.248 265.566 142.053 262.715 141.702 260.244C141.68 260.092 141.653 259.941 141.629 259.789C140.836 258.538 140.414 257.055 139.897 255.693C137.947 251.653 139.248 249.18 139.231 245.031C139.108 232.799 139.994 221.452 143.851 209.652C145.738 203.076 149.658 196.683 152.903 190.588L147.889 190.489C148.472 190.066 149.774 190.076 150.526 190.077C151.039 190.078 151.836 190.163 152.327 190.035C153.714 189.673 154.191 188.508 154.908 187.493C161.278 178.339 169.666 170.76 178.592 163.633C181.33 161.447 186.103 159.854 187.95 157.053C188.733 156.11 189.866 155.584 190.872 154.858C191.008 154.759 191.142 154.658 191.277 154.557C191.496 155.081 191.805 155.212 192.267 155.57C194.56 155.164 195.643 152.527 198.355 151.875L198.844 153.079C198.393 153.751 198.034 154.055 197.31 154.489C198.578 154.426 199.135 154.241 200.238 154.845L200.816 156.106C201.762 156.175 202.435 155.827 203.3 155.516C203.545 153.88 203.848 152.346 204.371 150.762L204.575 150.631L209.175 149.257C211.709 148.632 214.571 148.131 216.459 146.393L216.853 146.313C219.795 145.244 223.142 144.713 226.242 144.136L227.102 143.922C230.563 143.088 244.695 140.337 247.42 141.733C249.078 141.761 249.795 141.29 251.126 140.447Z" fill="white"/>
<path d="M246.054 281.046C245.684 282.038 245.271 283.286 244.485 284.087C243.765 284.821 243.195 285.063 242.143 285.147L241.346 284.465C240.73 283.083 241.23 282.011 241.65 280.65C243.32 281.264 244.291 281.239 246.054 281.046Z" fill="black"/>
<path d="M217.83 265.708C216.639 266.355 215.307 267.182 213.956 267.516C212.979 267.756 212.301 267.525 211.532 267.03L211.411 265.942C212.529 263.374 214.292 262.807 216.858 261.624C217.028 263.099 217.226 264.323 217.83 265.708Z" fill="black"/>
<path d="M296.549 212.922C298.66 211.366 299.952 210.109 302.839 210.148L303.739 210.688C303.846 211.698 303.783 212.308 303.044 213.14C302.117 214.194 300.291 215.103 299.061 215.869L296.549 212.922Z" fill="black"/>
<path d="M197.31 154.489C198.578 154.426 199.135 154.241 200.239 154.845L200.816 156.106C197.393 158.089 193.113 159.676 190.203 162.265C190.174 161.805 190.122 161.324 190.198 160.865C190.63 158.288 195.204 155.943 197.31 154.489Z" fill="#9B9B9B"/>
<path d="M216.459 146.393L216.853 146.313C217.228 147.751 217.71 149.219 217.754 150.7C215.738 151.066 213.777 151.505 211.796 151.995C208.993 152.981 206.208 153.888 203.645 155.326L203.3 155.516C203.545 153.88 203.848 152.346 204.371 150.762L204.575 150.631L209.176 149.257C211.709 148.632 214.571 148.131 216.459 146.393Z" fill="#9B9B9B"/>
<path d="M216.459 146.393L216.853 146.313C217.228 147.751 217.71 149.219 217.753 150.7C214.844 149.477 213.131 149.708 210.07 150.16L209.175 149.257C211.709 148.632 214.571 148.131 216.459 146.393Z" fill="#969696"/>
<path d="M300.389 146.699C305.209 148.42 310.118 149.888 314.76 151.981V158.587C308.817 155.348 303.409 153.054 296.7 151.332C297.743 149.64 299.043 148.199 300.389 146.699Z" fill="#969696"/>
<path d="M226.242 144.136L227.102 143.922C230.564 143.088 244.695 140.337 247.42 141.733C247.88 142.821 248.409 143.84 248.989 144.879C243.847 145.2 238.702 145.331 233.624 146.235L232.802 147.281C231.001 147.281 228.618 146.88 226.952 147.284C226.156 148.347 225.482 148.729 224.04 149.015C223.04 149.213 221.765 148.96 220.767 148.821C220.672 148.908 220.58 148.997 220.484 149.084C219.575 149.911 218.967 150.304 217.754 150.7C217.71 149.219 217.228 147.751 216.853 146.313C219.795 145.244 223.142 144.713 226.242 144.136Z" fill="#9B9B9B"/>
<path d="M252.602 250.986L253.561 250.573C254.753 250.961 255.423 251.41 256.386 252.122C255.287 254.303 249.128 270.618 248.967 272.285C248.135 275.102 246.263 278.207 246.054 281.046C244.291 281.239 243.32 281.264 241.651 280.65C243.456 277.641 243.689 274.134 245.253 271.014L246.529 270.709L246.708 270.361L245.85 269.128C247.376 265.533 248.974 261.9 250.286 258.24C250.83 256.725 251.078 255.143 251.834 253.7C252.311 252.79 252.468 251.978 252.602 250.986Z" fill="black"/>
<path d="M139.231 245.031C139.994 245.553 140.036 245.684 141.032 245.816C141.911 246.042 142.348 245.984 142.931 246.646C142.186 247.186 141.666 247 140.736 247.014C141.188 247.921 141.841 248.257 142.688 248.854C143.015 250.107 141.812 252.376 141.042 253.493C140.82 253.814 140.544 254.053 140.26 254.322C140.33 254.732 140.37 255.086 140.551 255.469C141.151 255.109 141.731 254.752 142.304 254.356L143.087 254.638C143.542 256.33 143.517 258.086 143.621 259.818C144.018 260.552 144.405 260.9 144.288 261.721C144.102 263.023 143.486 266.666 144.363 267.644C144.766 268.095 145.46 268.503 145.968 268.864C146.796 271.666 146.67 275.932 149.129 278.016C149.819 278.554 150.66 278.929 150.799 279.757L150.097 280.114C150.905 282.779 158.165 292.143 158.109 292.751C158.024 293.672 157.209 295.209 156.873 296.126C153.947 289.789 148.907 285.057 146.924 278.257C145.545 271.056 141.988 271.057 140.919 267.683C140.248 265.566 142.053 262.715 141.702 260.244C141.68 260.092 141.653 259.941 141.629 259.789C140.836 258.538 140.414 257.055 139.897 255.693C137.947 251.653 139.248 249.18 139.231 245.031Z" fill="#838383"/>
<path d="M251.126 140.447C253.612 141.006 256.294 140.736 258.839 140.66C260.752 140.817 262.673 140.945 264.58 141.144C269.566 140.691 279.653 141.182 284.022 143.131L286.342 143.478L300.388 146.699C299.043 148.199 297.742 149.64 296.7 151.331C286.94 147.144 275.263 145.302 264.5 145.321C262.83 145.088 261.184 144.489 259.525 144.148L258.671 144.881L257.845 144.792C257.475 144.035 257.308 143.614 256.63 143.036L256.995 144.262C254.899 144.858 252.766 144.511 250.626 144.833C250.005 144.927 249.61 144.945 248.989 144.879C248.409 143.84 247.88 142.821 247.42 141.733C249.078 141.761 249.794 141.29 251.126 140.447Z" fill="#838383"/>
<path d="M191.277 154.557C191.496 155.081 191.805 155.212 192.267 155.57C194.559 155.164 195.643 152.527 198.355 151.875L198.844 153.079C198.393 153.751 198.034 154.055 197.31 154.489C195.204 155.943 190.63 158.288 190.198 160.866C190.122 161.324 190.173 161.805 190.203 162.265C188.852 164.535 184.032 166.34 181.671 168.101C178.663 170.344 176.001 172.938 173.005 175.2C171.978 175.976 169.438 177.336 168.761 178.225C168.517 178.546 168.653 179.585 168.693 179.969C168.021 180.604 167.433 180.869 166.6 181.284C162.996 183.078 159.406 188.646 157.799 192.006C157.741 192.128 157.651 192.236 157.577 192.351C156.759 193.84 156.025 195.243 154.958 196.608C153.016 199.093 151.923 202.012 150.131 204.588L150.845 205.755C150.341 206.466 150.572 206.418 149.593 206.656C148.56 206.906 148.956 206.77 148.04 207.261C148.148 207.512 148.27 207.761 148.367 208.018C148.429 208.184 148.469 208.357 148.52 208.526C147.547 209.907 146.219 210.189 145.27 211.774L146.807 212.5C146.396 213.035 145.958 213.506 145.472 213.989C145.071 215.644 144.978 217.085 144.958 218.775C144.938 220.417 143.378 220.916 143.328 222.507L144.404 223.417L144.099 224.038L142.186 224.472C141.762 225.364 141.838 225.472 142.232 226.425C142.359 226.731 142.575 227.141 142.732 227.447C142.187 228.187 142.525 227.83 141.68 228.486L142.499 229.429C142.137 230.338 141.168 230.546 140.945 231.034C140.875 231.189 142.861 234.803 142.999 235.51C143.218 236.636 142.052 236.463 142.07 237.737L142.656 238.591C141.829 238.866 141.404 238.893 140.541 238.91C141.105 239.411 141.654 239.708 142.323 240.081C142.778 241.279 142.987 243.325 142.424 244.51C142.14 245.107 141.595 245.455 141.032 245.816C140.036 245.684 139.994 245.553 139.231 245.031C139.108 232.8 139.994 221.453 143.851 209.652C145.737 203.076 149.658 196.683 152.902 190.589L147.889 190.489C148.472 190.066 149.774 190.076 150.526 190.077C151.039 190.078 151.836 190.164 152.327 190.035C153.714 189.673 154.191 188.508 154.908 187.493C161.278 178.339 169.666 170.76 178.592 163.633C181.33 161.447 186.103 159.854 187.95 157.053C188.733 156.111 189.866 155.585 190.872 154.858C191.008 154.759 191.142 154.658 191.277 154.557Z" fill="#838383"/>
<path d="M261.906 223.478C263.923 218.783 265.162 213.98 266.872 209.209C267.661 207.006 268.852 204.934 269.596 202.716C270.536 199.907 271.083 196.83 272.438 194.154C272.971 193.101 273.464 192.514 274.528 191.877L275.444 191.903C276.463 193.223 276.314 194.149 275.996 195.695C274.443 203.247 269.398 216.285 266.052 223.472C265.778 224.398 265.361 225.41 265.217 226.352C264.589 228.646 263.907 230.929 263.519 233.267C267.081 231.072 270.608 228.777 274.309 226.777C280.761 221.34 289.368 217.554 296.548 212.922L299.061 215.869C292.872 219.668 279.732 228.842 273.754 231.243C271.448 233.457 268.11 234.851 265.537 236.871C269.887 235.792 273.996 235.903 278.449 235.684C279.258 235.644 279.87 235.818 280.634 236.025C285.621 235.838 290.361 235.911 295.328 236.464C297.466 236.702 299.168 235.611 301.217 235.536C305.663 235.377 310.305 235.687 314.759 235.828V238.68C303.248 239.195 291.565 238.71 280.119 239.871C276.197 238.303 269.153 239.648 264.662 239.407C270.193 242.774 305.609 260.31 307.151 262.92C306.928 263.964 306.714 264.068 305.877 264.841L304.906 265.048C291.48 257.511 277.449 250.842 263.74 243.703C267.851 250.285 269.713 257.593 272.765 264.549C274.931 269.487 277.755 274.055 279.484 279.197C279.868 280.339 280.34 282.035 279.99 283.228C279.928 283.442 279.783 283.628 279.678 283.828C278.654 283.888 279.008 284.034 278.268 283.493C273.617 280.097 262.671 249.892 259.713 242.57C258.584 245.583 256.936 248.983 256.386 252.122C255.422 251.41 254.752 250.961 253.56 250.573L252.602 250.986C252.923 248.048 253.849 245.279 254.371 242.378C247.203 248.737 238.446 253.324 230.133 258.364C226.105 260.806 222.08 263.621 217.83 265.708C217.226 264.323 217.028 263.099 216.858 261.624L217.725 261.693C223.425 257.176 230.901 253.615 237.279 249.862C242.51 246.785 247.481 243.375 252.757 240.357C246.003 240.409 239.264 239.878 232.515 239.815C226.057 239.754 204.273 242.081 200.026 239.327C199.724 238.397 199.753 238.451 200.24 237.58C203.81 235.935 236.779 236.544 242.972 236.591C245.852 236.627 248.846 236.51 251.671 237.03L251.899 236.689C251.166 235.169 238.674 228.899 236.283 227.624L233.016 225.871C227.562 222.581 212.34 215.391 208.864 211.733L208.941 211.035C209.574 210.514 209.913 210.341 210.778 210.162C211.624 209.986 212.625 209.978 213.408 210.344C215.158 211.16 216.841 212.418 218.541 213.359C224.28 216.534 230.031 219.671 235.588 223.102L239.048 224.869C244.206 227.615 249.645 230.047 254.365 233.386C249.646 221.818 244.131 210.571 238.747 199.245C238.024 198.495 237.031 197.064 236.6 196.136C236.129 195.12 236.401 194.569 236.816 193.591C237.784 193.154 238.163 192.951 239.258 193.409C241.21 194.226 242.135 197.233 242.815 198.884C245.697 203.684 256.423 228.848 258.531 230.577C258.77 230.773 259.131 230.792 259.432 230.9C260.079 228.622 260.576 225.475 261.906 223.478Z" fill="black"/>
</svg>
