<svg width="380" height="582" viewBox="0 0 380 582" fill="none" xmlns="http://www.w3.org/2000/svg">
<path d="M183.987 234.614C185.252 237.577 186.163 240.703 187.564 243.605C186.06 242.293 185.036 241.726 182.992 241.29C183.344 238.844 182.604 237.774 181.084 235.855L183.987 234.614Z" fill="#0D0D0D"/>
<path d="M39.5905 75.9648C40.6272 77.2388 41.245 78.3528 43.0861 78.6438C44.525 80.5998 45.5894 82.7438 46.7249 84.8518C40.5061 89.3218 41.7849 91.3089 33.2015 94.3969C31.3272 92.9699 27.7387 90.2188 27.0303 88.0358C25.2623 82.5858 36.7466 80.8238 39.3494 76.3938C39.4327 76.2518 39.5105 76.1078 39.5905 75.9648Z" fill="#040209"/>
<path d="M21.0357 55.9349C26.6912 60.6579 27.0035 65.1099 31.0262 68.3069C27.5584 70.6429 21.9145 74.3619 17.4024 73.8519C15.4906 73.6349 14.0837 72.7259 12.863 71.4389C11.3898 69.8859 9.96558 67.1679 10.3704 65.0669C11.2509 60.4949 16.8638 59.1169 20.309 56.5009C20.5538 56.3149 20.7935 56.1239 21.0357 55.9349Z" fill="#040209"/>
<path d="M55.3727 97.6739C56.352 99.0999 57.3068 100.539 58.2371 101.992C58.1794 104.432 58.5916 105.454 60.026 107.482C60.716 108.458 61.2871 109.37 61.6483 110.489C59.9194 112.54 58.3438 114.142 56.0283 115.714C54.0216 115.92 51.9616 116.193 49.9438 116.247C47.6827 116.308 45.9438 115.495 44.3627 114.112C42.936 112.865 41.7083 111.307 41.9416 109.414C42.576 104.274 50.966 101.173 54.8772 98.0739L55.3727 97.6739Z" fill="#040209"/>
<path d="M70.6217 155.394C71.5261 155.121 72.1084 155.227 73.0439 155.301C74.2095 156.302 74.7106 157.412 75.0428 158.812C75.6939 161.56 77.5461 168.411 76.0961 170.485C70.6906 173.088 60.3539 174.918 54.1739 174.713C53.665 174.524 53.5506 174.518 53.085 174.151C50.4284 172.056 47.805 163.643 47.5361 160.477C47.475 159.765 47.2806 159.735 47.7839 159.342C50.6628 157.093 66.5261 155.431 70.6217 155.394Z" fill="white"/>
<path d="M43.0859 78.6439C44.2004 78.1589 45.4115 77.9809 46.5459 77.5019C47.2837 77.1909 48.017 76.8499 48.7882 76.6069C51.6093 75.7169 56.3315 76.2289 59.037 77.2939C60.0937 77.7109 61.2259 78.5689 62.3082 78.8419C63.7515 79.2069 64.1004 78.8729 65.1693 78.1509L65.9259 79.5589C69.9459 87.4569 74.9315 95.7719 72.9893 104.596C69.157 104.404 65.2848 104.159 61.6593 102.929C60.7826 102.631 59.9715 102.346 59.0548 102.155L58.237 101.992C57.3067 100.539 56.3519 99.0999 55.3726 97.6739C52.8315 93.2869 49.8626 88.9089 46.7248 84.8519C45.5893 82.7439 44.5248 80.5999 43.0859 78.6439Z" fill="black"/>
<path d="M59.1836 89.3669L59.748 88.7019C61.0091 89.2059 61.4914 90.3119 62.2447 91.3329L62.1402 92.7429C60.8302 93.5109 60.5302 93.3309 58.9436 93.2189C58.0747 92.6569 57.6169 92.3349 57.1636 91.4529L59.1836 89.3669Z" fill="black"/>
<path d="M175.964 135.592C178.172 132.344 180.216 131.574 184.284 130.693C189.552 129.553 205.919 124.197 210.085 126.578C213.517 128.54 215.865 135.99 216.342 139.616C216.504 140.837 216.535 141.743 215.86 142.853C210.494 147.157 192.384 150.813 184.916 151.443C183.77 151.168 182.71 151.115 181.535 151.037L181.154 150.512L181.905 148.304C179.659 144.049 179.58 139.122 175.964 135.592Z" fill="white"/>
<path d="M165.72 131.641C167.121 133.778 169.236 134.463 171.868 135.077C173.22 135.392 174.559 135.771 175.964 135.592C179.58 139.122 179.659 144.049 181.905 148.304L181.154 150.512L181.535 151.037C182.71 151.115 183.77 151.168 184.916 151.443C180.067 152.664 162.764 156.318 159.3 158.19L159.079 158.571L158.01 158.633C155.448 158.77 153.007 158.502 150.425 158.781C146.205 159.237 141.055 160.675 136.888 160.531C136.248 154.832 132.797 149.557 132.266 143.765C132.139 142.379 131.759 141.325 131.163 140.049L133.505 139.339C136.003 139.097 138.148 138.796 140.456 137.865C147.929 136.426 156.059 135.591 163.339 133.617C165.009 133.165 164.977 132.982 165.72 131.641Z" fill="#838383"/>
<path d="M264.184 91.1059L266.171 91.8619C269.854 95.7509 270.982 103.147 272.323 108.053C265.121 111.919 254.371 116.327 246.117 117.565C248.426 129.36 260.232 149.666 254.737 160.877C252.481 165.485 248.121 168.714 242.948 170.482C236.627 172.642 230.681 172.176 224.602 169.736C223.761 169.184 222.901 168.621 222.151 167.969C220.143 166.224 218.388 163.472 218.5 160.894C218.643 157.567 221.708 154.39 224.4 152.374C231.143 147.324 239.361 146.443 247.756 147.177C245.018 142.697 233.464 106.038 233.786 100.973C239.373 95.4879 255.432 93.9039 263.486 91.3349L264.184 91.1059Z" fill="white"/>
<path d="M47.2194 226.645C51.4928 227.516 71.3995 240.331 74.3895 243.378C75.4928 250.454 66.7794 286.785 65.0083 295.657C63.4706 303.357 62.5417 311.322 60.5639 318.93C60.0372 320.958 59.2083 322.702 58.0728 324.514C51.8217 327.539 43.9872 329.77 36.9591 327.877C33.1881 326.861 30.0397 324.616 28.1808 321.483C27.9353 321.069 27.7138 320.645 27.5163 320.211C27.3188 319.777 27.1463 319.335 26.9988 318.886C26.8512 318.436 26.7294 317.981 26.6333 317.52C26.5373 317.059 26.4676 316.594 26.424 316.127C26.3804 315.66 26.3634 315.192 26.3728 314.723C26.3823 314.254 26.4181 313.787 26.4803 313.321C26.5426 312.856 26.6309 312.394 26.7454 311.936C26.8599 311.479 26.9999 311.028 27.1653 310.583C27.3331 310.135 27.5265 309.696 27.7456 309.266C27.9645 308.837 28.2079 308.419 28.4758 308.012C28.7436 307.605 29.0344 307.212 29.3482 306.833C29.6619 306.454 29.9969 306.09 30.353 305.742C30.7092 305.395 31.0846 305.065 31.4792 304.753C31.8738 304.441 32.2855 304.148 32.7143 303.875C33.1432 303.602 33.5867 303.35 34.045 303.119C34.5032 302.888 34.9737 302.679 35.4563 302.492C41.7539 300.065 49.9183 301.408 56.085 303.641C58.1528 295.151 58.9606 286.355 60.4161 277.756C62.0072 274.073 62.5572 265.526 63.2572 261.27C58.1883 255.804 51.6317 251.796 46.5017 246.414C44.6717 253.732 36.818 283.002 32.9328 287.97C30.2809 291.361 24.7534 293.229 20.3812 293.826C15.436 294.501 9.18066 294.219 5.076 291.337C0.82122 288.35 0.601778 284.663 0 280.201L0.303667 279.509C2.09944 275.497 4.59089 272.893 9.20256 271.257C17.21 268.416 23.7531 271.15 30.9846 274.157C31.1949 273.1 31.417 272.045 31.651 270.992C33.2394 263.834 35.895 256.974 37.9761 249.931C39.9483 243.255 41.2172 235.673 44.3594 229.413C45.0361 228.065 45.8739 227.451 47.2194 226.645Z" fill="white"/>
<path d="M136.888 160.531C141.055 160.675 146.205 159.237 150.425 158.781C153.007 158.502 155.448 158.77 158.01 158.633L159.079 158.571C159.141 158.799 159.208 159.026 159.266 159.255C159.55 160.38 159.453 159.931 159.581 161.013C160.257 166.741 163.307 173.418 165.091 179.011C171.045 197.666 177.662 216.075 183.987 234.614L181.083 235.855C182.603 237.774 183.343 238.844 182.991 241.29C185.036 241.726 186.059 242.293 187.563 243.605C190.607 255.897 197.026 267.516 199.817 279.962C197.115 278.933 195.316 280.733 193.471 278.119L194.037 277.344C194.581 276.591 195.007 275.846 195.407 275.02L194.781 274.527C192.7 274.672 190.712 274.689 189.187 276.178C187.907 277.426 187.603 279.374 187.185 280.985C186.013 280.583 185.882 280.346 185.102 279.44L184.415 279.878C184.486 284.65 187.448 281.503 184.448 288.694C182.545 288.961 181.766 287.234 180.218 288.081L179.752 289.694L178.838 289.391C177.683 289.016 178.157 289.135 177.195 288.947C173.555 283.721 170.783 272.646 168.67 266.58C168.282 265.594 168.045 264.855 167.988 263.799C167.903 262.207 167.961 261.144 166.949 259.775C166.003 258.495 165.587 257.415 165.139 255.939C162.112 253.3 158.426 240.485 156.948 236.311C154.536 233.759 153.271 228.42 152.018 225.189C150.909 222.631 150.196 217.577 148.555 215.634C147.811 214.753 147.766 214.524 147.747 213.436C144.983 208.235 143.256 202.025 141.285 196.508C139.94 193.508 134.707 180.579 133.499 178.814C133.047 178.153 132.805 177.715 132.551 176.972C131.691 172.802 130.513 169.186 128.701 165.276C128.349 163.457 128.361 162.651 129.493 161.127C130.741 160.64 131.478 160.531 132.848 160.588C133.871 160.631 134.839 160.661 135.862 160.598L136.888 160.531Z" fill="#060626"/>
<path d="M165.139 255.939L167.185 256.684C167.416 257.236 167.605 257.769 167.787 258.336C168.026 259.08 167.866 258.781 168.341 259.368C168.494 259.279 168.632 259.162 168.801 259.101C169.887 258.711 170.631 258.708 171.757 258.891C172.026 260.943 169.761 262.143 171.998 263.879C170.911 264.741 169.624 265.609 168.671 266.58C168.283 265.594 168.045 264.855 167.988 263.799C167.904 262.207 167.962 261.144 166.949 259.775C166.004 258.495 165.587 257.415 165.139 255.939Z" fill="#0D0D0D"/>
<path d="M152.018 225.189C153.784 225.27 155.46 225.141 156.913 226.173C159.025 229.75 154.197 232.555 158.254 235.092C157.814 235.636 157.567 235.908 156.948 236.311C154.536 233.759 153.272 228.42 152.018 225.189Z" fill="#0D0D0D"/>
<path d="M156.928 197.449C158.163 197.647 159.347 197.749 160.309 198.538C161.35 199.39 162.323 200.82 162.27 202.103C162.217 203.421 161.694 204.07 160.661 204.907C159.483 205.444 159.381 205.741 158.036 205.491C157.904 205.239 157.763 204.991 157.639 204.735C156.754 202.906 156.128 199.316 156.928 197.449Z" fill="#0D0D0D"/>
<path d="M128.702 165.276L130.883 164.804C131.591 166.224 131.624 167.498 131.709 169.021C133.111 170.896 136.289 170.33 136.964 172.134C136.297 173.752 135.194 176.003 133.318 176.715C133.067 176.81 132.807 176.886 132.552 176.972C131.692 172.802 130.514 169.186 128.702 165.276Z" fill="#0D0D0D"/>
<path d="M143.362 177.781C144.247 177.97 144.189 177.834 144.727 178.261C144.899 178.397 145.05 178.553 145.218 178.693C146.626 179.869 148.47 181.129 148.857 182.951C149.191 184.53 148.021 185.482 147.117 186.741C145.446 185.95 144.109 185.352 143.016 183.905C142.877 182.87 142.71 182.258 143.13 181.265C143.567 180.234 143.461 179.666 143.406 178.56L143.362 177.781Z" fill="#0D0D0D"/>
<path d="M141.285 196.508C142.737 196.793 143.775 196.957 144.927 197.879C144.907 198.071 144.885 198.264 144.868 198.456C144.785 199.38 144.809 199.035 144.84 200.096C146.456 201.078 148.036 201.252 149.931 201.547C151.032 202.789 151.085 203.656 150.89 205.226C150.55 207.971 149.365 211.086 147.747 213.436C144.984 208.235 143.256 202.025 141.285 196.508Z" fill="#0D0D0D"/>
<path d="M164.829 228.707C165.532 227.792 166.455 227.15 165.951 225.963C165.806 225.621 165.303 224.99 165.063 224.674L165.393 223.467C166.51 223.014 167.118 222.766 168.388 223.076C168.592 223.125 168.764 223.249 168.951 223.336C168.464 221.395 167.263 221.634 166.501 219.965C165.538 219.667 164.594 219.152 163.606 219.412L164.57 219.845C164.913 220.983 165.128 221.379 164.313 222.441C163.842 223.056 163.429 223.411 162.629 223.472C160.563 221.455 162.695 217.446 160.441 215.862L161.146 217.837C160.067 218.486 159.443 218.573 158.155 218.637L157.389 218.058C157.827 216.657 158.731 215.808 159.759 214.734L159.463 212.829L160.199 212.396C160.798 213.06 161.251 213.701 161.706 214.452C164.087 215.478 168.19 215.809 169.967 217.403C169.699 218.21 169.028 219.45 169.282 220.243C170.276 220.283 170.741 220.225 171.675 220.009C173.256 221.375 174.493 222.65 175.648 224.329L175.53 225.066C174.15 224.926 174.82 225.113 173.537 224.462C171.974 224.923 171.911 224.869 171.037 226.105C171.886 226.608 172.519 226.837 173.466 227.137L174.262 228.228C173.979 228.161 173.703 228.072 173.415 228.028C171.027 227.668 168.996 228.725 167.264 230.044C166.601 230.548 167.031 230.397 166.07 230.423L164.829 228.707Z" fill="#0D0D0D"/>
<path d="M167.182 242.105C168.073 241.778 168.986 241.508 169.895 241.222L169.222 240.481C169.783 240.483 170.218 240.341 170.648 240.689C169.076 239.899 167.237 239.605 165.712 238.849C163.955 237.977 164.022 233.77 162.208 232.186C161.966 231.974 161.712 231.774 161.464 231.568C161.846 229.409 161.194 227.108 161.61 225.083C161.848 223.922 162.437 223.551 163.389 222.921L164.013 223.452C164.728 225.136 164.882 226.308 164.847 228.114L164.829 228.707L166.07 230.423C167.032 230.397 166.602 230.548 167.264 230.044C168.996 228.725 171.027 227.668 173.415 228.028C173.703 228.072 173.979 228.161 174.262 228.228C175.31 231.446 179.06 229.971 177.565 234.133L178.037 235.078L181.084 235.855C182.604 237.774 183.344 238.844 182.992 241.29C182.367 240.698 182.378 240.409 181.384 240.418C180.275 240.429 179.255 240.758 178.395 241.41C177.943 241.753 177.662 242.208 177.35 242.645L177.524 243.674C178.607 244.382 179.663 244.728 180.022 245.92L179.38 246.351C178.126 247.211 177.766 247.391 177.38 248.745C179.03 250.034 180.257 248.218 181.327 250.197L180.879 250.731L179.125 250.915C180.348 252.137 180.913 252.464 182.617 253.057C183.523 253.372 184.254 253.862 185.048 254.352L185.223 255.166C183.292 256.106 179.354 255.864 178.207 257.179C178.54 258.436 178.75 258.878 178.472 260.169L177.599 260.345C176.626 259.096 176.933 257.777 176.859 256.34C176.842 255.992 176.803 255.646 176.774 255.3L175.979 255.749C174.97 254.9 174.804 254.301 174.477 253.11C175.42 251.91 175.825 251.798 175.63 250.361C174.627 249.433 173.965 249.204 172.587 248.861L171.479 247.591C171.852 246.777 171.552 247.179 172.548 246.504C171.703 245.46 170.976 244.958 169.808 244.25C169.748 244.489 169.694 244.729 169.627 244.967C169.56 245.211 169.482 245.452 169.408 245.695C167.815 246.472 166.375 246.235 164.667 245.943C165.284 244.216 165.813 243.436 167.182 242.105Z" fill="black"/>
<path d="M167.181 242.105L168.857 242.642L169.278 243.598C168.675 244.606 168.107 245.205 166.882 245.641C166.275 245.857 165.288 245.885 164.667 245.943C165.284 244.216 165.812 243.436 167.181 242.105Z" fill="#1A1A1A"/>
<path d="M21.0358 55.9349C19.1187 48.353 17.6292 37.6054 20.3403 30.134C22.9125 23.0451 29.711 16.4607 37.0497 13.0583C45.8073 8.99788 58.3484 8.24928 67.6362 10.9757C67.8573 11.0746 68.0751 11.1807 68.2995 11.2726C69.6162 11.8109 68.7518 11.4874 70.0506 11.7427C77.544 13.2157 90.9973 22.8612 94.9262 28.9186C96.9807 32.0862 98.4573 35.6566 99.5518 39.1786C100.714 42.2859 101.936 45.6153 102.315 48.8876C100.588 50.3359 95.7818 71.4999 95.624 74.7599C95.5651 75.9719 95.764 77.0609 95.9284 78.2529C95.9429 78.3559 95.934 78.4599 95.9362 78.5629C94.6818 78.4599 94.3707 78.2679 93.3295 77.6919C92.2951 74.8609 91.7707 71.9289 91.1595 69.0059C90.6251 67.0799 89.8173 65.4089 88.8673 63.6209L87.1318 62.1279C85.3251 61.4809 84.2051 59.6049 83.1929 58.2229C82.094 60.9089 79.8962 63.3199 77.5951 65.2609C76.654 66.1839 75.7284 67.1189 74.7395 67.9999L70.2373 69.8039C71.5418 71.8879 73.6762 74.5039 73.354 76.9059L72.1195 77.6579L71.954 78.2889C70.3229 78.2179 68.8384 78.1949 67.2206 78.4079L65.9262 79.5589L65.1695 78.1509C64.1007 78.8729 63.7518 79.2069 62.3084 78.8419C61.2262 78.5689 60.094 77.7109 59.0373 77.2939C56.3318 76.2289 51.6095 75.7169 48.7884 76.6069C48.0173 76.8499 47.284 77.1909 46.5462 77.5019C45.4118 77.9809 44.2007 78.1589 43.0862 78.6439C41.2451 78.3529 40.6273 77.2389 39.5907 75.9649C36.9585 73.2299 34.0119 70.7239 31.0263 68.3069C27.0035 65.1099 26.6913 60.6579 21.0358 55.9349Z" fill="white"/>
<path d="M62.7292 72.3759C60.2926 67.9159 51.2715 68.3328 47.4137 62.7498C44.5792 58.6479 45.2337 53.9569 46.5537 49.4829C46.7092 48.9766 46.8915 48.4783 47.1004 47.9881C47.31 47.4978 47.5455 47.0178 47.807 46.5482C48.0685 46.0786 48.3544 45.6216 48.6648 45.177C48.9759 44.7325 49.31 44.3027 49.667 43.8875C50.0248 43.4723 50.4041 43.0737 50.8048 42.6918C51.2048 42.3098 51.6248 41.9463 52.0648 41.6013C52.5048 41.2562 52.9626 40.9312 53.4381 40.6263C53.9129 40.3213 54.4033 40.0379 54.9092 39.7761C59.5692 37.4109 65.4281 36.815 70.5759 38.0743C75.3115 39.2327 79.3803 41.7219 81.7937 45.6264C84.2937 49.6734 84.5337 53.8499 83.1926 58.2229C82.0937 60.9089 79.8959 63.3199 77.5948 65.2609C76.6537 66.1839 75.7281 67.1188 74.7392 67.9998L70.237 69.8038C71.5415 71.8878 73.6759 74.5039 73.3537 76.9059L72.1192 77.6579L71.9537 78.2888C70.3226 78.2178 68.8381 78.1949 67.2203 78.4079L65.9259 79.5589L65.1692 78.1508C63.937 76.2068 62.9703 74.6519 62.7292 72.3759Z" fill="#060626"/>
<path d="M70.2373 69.8039L69.8473 69.4369C69.5218 68.2769 69.2407 67.3429 69.4318 66.1289C69.5773 65.1979 69.4729 65.4899 70.304 64.9119C70.9262 65.5139 71.5196 65.9369 72.2807 66.3909C74.0796 65.8079 75.7018 65.4939 77.5951 65.2609C76.654 66.1839 75.7284 67.1189 74.7396 67.9999L70.2373 69.8039Z" fill="black"/>
<path d="M62.7295 72.3759C65.9517 74.4079 68.7028 73.5699 70.7539 77.0039L72.1195 77.6579L71.9539 78.2888C70.3228 78.2178 68.8384 78.1949 67.2206 78.4079L65.9262 79.5589L65.1695 78.1508C63.9373 76.2068 62.9706 74.6519 62.7295 72.3759Z" fill="#0D0D0D"/>
<path d="M67.6362 10.9757C72.9373 4.71561 79.9407 1.27811 88.634 0.253107C101.687 -1.28599 118.944 4.40231 129.102 11.6655C135.758 16.4255 141.968 26.6716 142.814 34.3225C143.466 40.2164 143.271 47.3275 142.488 53.2189L142.532 54.1129C141.713 63.3259 145.08 71.7779 147.878 80.5299C151.091 90.8986 154.618 101.18 158.458 111.374C160.918 118.087 163.847 124.779 165.721 131.641C164.977 132.982 165.01 133.165 163.34 133.617C156.06 135.591 147.93 136.426 140.456 137.865C138.148 138.796 136.003 139.097 133.505 139.339L131.163 140.049C129.248 140.497 127.323 141.024 125.352 141.206L123.35 141.226C121.994 142.076 120.923 142.652 119.37 143.151C117.296 139.435 116.393 133.949 115.071 129.874C113.218 124.164 110.903 118.718 108.821 113.093C106.685 107.326 105.148 101.465 102.301 95.9269L102.115 95.5619C100.112 89.8789 97.8696 84.2669 95.9362 78.5629C95.934 78.4599 95.9429 78.3559 95.9285 78.2529C95.764 77.0609 95.5651 75.9719 95.624 74.7599C95.7818 71.4999 100.588 50.3359 102.315 48.8876C101.936 45.6153 100.714 42.2859 99.5518 39.1786C98.4573 35.6566 96.9807 32.0862 94.9262 28.9186C90.9973 22.8612 77.544 13.2157 70.0507 11.7427C68.7518 11.4874 69.6162 11.8109 68.2996 11.2726C68.0751 11.1807 67.8573 11.0746 67.6362 10.9757Z" fill="#060626"/>
<path d="M115.387 99.2589C117.088 100.209 118.569 100.996 119.841 102.406C120.221 103.675 120.174 104.154 119.649 105.378C119.347 105.426 119.049 105.527 118.741 105.522C117.617 105.507 116.559 104.793 115.726 104.198C114.666 102.572 115.133 101.032 115.387 99.2589Z" fill="#0D0D0D"/>
<path d="M134.998 135.228C135.607 134.006 135.576 133.77 136.862 133.145C138.498 133.923 139.216 134.859 139.786 136.444C139.88 136.706 139.923 136.984 140.042 137.237C140.147 137.461 140.317 137.656 140.456 137.865C138.148 138.796 136.003 139.097 133.505 139.339C133.085 138.73 132.722 138.09 132.342 137.46C132.87 136.1 133.66 135.965 134.998 135.228Z" fill="#020119"/>
<path d="M125.352 141.206C125.467 140.582 125.563 139.8 125.832 139.202C127.323 135.888 130.228 135.951 133.393 134.811C133.566 134.749 133.734 134.675 133.904 134.607L134.998 135.228C133.66 135.965 132.87 136.1 132.342 137.46C132.722 138.09 133.085 138.73 133.505 139.339L131.163 140.049C129.248 140.497 127.323 141.024 125.352 141.206Z" fill="#0D0D0D"/>
<path d="M135.471 58.5309C135.824 58.5029 136.175 58.4509 136.528 58.4489C137.924 58.4399 138.674 58.7859 139.543 59.6989C139.861 61.6249 139.186 64.5219 137.868 66.0959C137.298 66.7759 137.135 67.0269 136.854 67.8349C136.741 68.1569 136.637 68.4819 136.529 68.8049C134.821 67.9909 132.945 66.2349 132.55 64.4809C132.015 62.0969 133.986 60.2629 135.471 58.5309Z" fill="#0D0D0D"/>
<path d="M122.556 49.3509C125.524 49.8552 128.494 52.1604 130.512 54.0649C131.895 55.3699 133.002 56.6839 132.927 58.5069L131.689 59.0229C130.376 59.8259 128.918 59.6759 127.394 59.6969C125.345 58.7859 124.963 57.0139 124.077 55.1799L122.015 54.6359L121.832 53.9109C122.444 52.6809 123.049 51.6175 122.767 50.237C122.707 49.9399 122.627 49.6463 122.556 49.3509Z" fill="#0D0D0D"/>
<path d="M112.597 47.3992C112.845 48.4762 113.321 49.7059 112.515 50.6909C112.144 51.1435 111.609 51.5755 111.157 51.9645C111.658 53.6049 113.28 54.3659 113.291 55.9879C112.296 56.7479 111.174 56.9759 109.951 57.3039L109.486 58.1359C110.159 59.3649 110.266 59.6569 111.524 60.3949L112.228 60.0049L112.708 58.0319L113.811 57.7559C115.085 58.6869 116.055 59.3399 116.721 60.7419C116.522 61.4809 116.647 61.7679 115.874 62.2179C113.81 63.4209 112.026 62.5149 110.104 64.2299C109.299 63.3429 109.234 62.4209 109.007 61.3259C108.447 60.7459 108.44 60.5329 107.581 60.3619C106.026 60.0519 105.041 59.9029 103.904 58.8099C103.65 57.5689 103.749 57.3299 104.224 56.1289L105.082 55.8469C106.395 56.4679 106.815 56.9689 108.329 56.6829C109.628 55.1709 110.154 52.9549 109.922 51.0549C109.841 50.3819 109.837 50.4219 109.697 49.8733C109.907 49.2099 110.205 48.6417 110.526 48.0169L112.597 47.3992Z" fill="#0D0D0D"/>
<path d="M131.793 116.409L132.588 116.238C133.284 121.226 138.282 120.631 139.765 124.691C140.516 126.746 139.841 129.889 138.861 131.803C137.751 131.878 137.532 131.883 136.544 131.575C134.771 131.021 133.634 130.396 132.816 128.848L133.383 127.92C135.355 128.22 135.759 128.499 137.246 129.691L137.735 130.09L138.133 129.59C137.435 128.656 136.811 127.998 136.699 126.845C137.403 125.974 137.567 125.763 137.774 124.657C136.953 124.993 137.371 124.761 136.473 125.566C136.223 125.79 135.978 126.019 135.732 126.246C133.975 127.596 132.539 127.32 130.349 127.206C128.416 127.106 129.984 129.45 128.653 130.469C125.366 127.233 125.406 128.799 122.985 127.336C123.317 127.112 123.655 126.861 124.047 126.725C125.478 126.226 125.883 126.354 127.192 126.867L127.234 126.432C126.219 125.638 125.329 124.835 124.428 123.944C124.557 122.624 124.827 122.681 125.968 121.807C127.634 121.89 128.266 123.321 129.806 124.038L129.878 123.465C129.286 122.598 129.153 122.149 128.923 121.179L131.821 119.441C131.571 118.293 131.543 117.558 131.793 116.409Z" fill="#0D0D0D"/>
<path d="M177.195 288.947C178.157 289.135 177.684 289.016 178.838 289.391L179.753 289.694L180.218 288.081C181.766 287.234 182.545 288.961 184.448 288.694C187.448 281.503 184.486 284.65 184.415 279.878L185.103 279.44C185.883 280.346 186.014 280.583 187.185 280.985C187.604 279.374 187.907 277.426 189.187 276.178C190.713 274.689 192.701 274.672 194.782 274.527L195.407 275.02C195.007 275.846 194.582 276.591 194.037 277.344L193.472 278.119C195.316 280.733 197.115 278.933 199.817 279.962C201.655 284.433 203.688 289.294 204.89 293.923C206.352 298.485 211.294 308.125 211.295 312.321C213.847 316.795 216.385 326.144 217.063 331.267C217.931 333.131 218.767 334.571 220.339 336.032C222.835 335.639 225.117 335.656 227.636 335.728C232.111 335.327 236.034 334.559 240.569 334.944C245.548 335.603 250.553 336.181 255.448 337.249C258.2 337.97 266.527 339.602 268.091 341.386C271.9 342.387 275.405 344.654 278.778 346.505C282.851 348.09 285.616 350.027 288.708 352.809C296.431 359.441 301.576 366.709 306.611 375.162L308.13 378.011C309.222 379.873 311.071 382.459 311.113 384.605C312.412 387.754 313.378 390.822 313.531 394.205C316.005 399.394 315.994 406.752 315.953 412.399L316.054 415.669L316.034 417.558C316.142 419.636 316.237 421.695 316.185 423.776C316.273 427.312 317.705 430.615 318.991 433.917C323.776 446.215 331.38 456.147 339.753 466.621C342.917 470.579 346.324 474.481 349.006 478.719C351.938 479.889 356.186 486.832 357.658 489.536C358.387 490.6 359.545 491.935 359.988 493.093C362.954 495.967 364.623 499.919 366.482 503.426C372.612 514.99 379.678 528.696 379.066 541.819C379.057 541.993 379.039 542.166 379.027 542.34L379.102 555.348C379.667 563.929 376.993 572.301 375.364 580.693C369.627 580.643 363.887 581.006 358.166 580.944C353.619 581.151 348.162 581.577 343.722 580.612L338.923 580.911C336.686 581.002 334.517 581.086 332.281 580.916L327.804 581.053C331.205 576.848 329.68 572.129 331.946 568.467C332.037 564.026 333.09 559.605 333.394 555.168C333.942 547.212 332.251 537.881 330.254 530.184C326.814 516.928 318.597 498.694 305.241 491.281C301.532 482.123 282.05 478.284 275.107 461.067C267.536 442.293 276.944 424.986 271.974 406.182C271.657 404.983 269.729 405.363 269.157 403.919C268.287 401.727 268.281 399.028 267.601 396.738C266.745 393.854 264.304 390.782 262.743 388.135C261.017 386.151 259.677 383.844 258.038 381.784C255.311 378.355 252.041 375.335 248.723 372.363C245.6 372.05 242.484 369.314 240.2 367.492C237.257 366.457 236.655 366 234.628 363.942C232.328 364.92 231.104 363.96 228.747 363.278C221.702 361.238 214.49 360.786 207.168 361.615C204.986 356.078 200.374 349.441 199.858 343.652C199.317 342.343 199.291 341.593 199.381 340.236C195.42 337.189 183.891 304.147 180.577 297.105C179.176 294.703 178.37 292.219 177.507 289.635L177.195 288.947Z" fill="black"/>
<path d="M312.595 413.064C312.502 411.813 312.416 412.433 312.876 411.208C313.652 411.614 314.325 411.916 315.182 412.179C315.437 412.257 315.696 412.325 315.953 412.399L316.054 415.669C314.771 415.834 314.136 416.134 312.954 415.565L312.595 413.064Z" fill="#060626"/>
<path d="M316.034 417.558C316.142 419.636 316.237 421.695 316.185 423.776C314.516 422.536 313.007 420.836 311.874 419.18C313.414 417.98 314.006 417.733 316.034 417.558Z" fill="#020119"/>
<path d="M199.38 340.236C200.784 340.242 201.357 340.504 202.62 340.963C202.713 340.997 202.817 340.998 202.916 341.016C203.462 342.247 203.977 343.489 204.46 344.741C202.808 344.784 201.47 343.971 199.858 343.652C199.317 342.343 199.29 341.593 199.38 340.236Z" fill="#0D0D0D"/>
<path d="M336.939 576.774C337.466 578.3 337.968 579.559 338.922 580.911C336.686 581.002 334.517 581.086 332.28 580.916C332.362 580.508 332.45 579.955 332.644 579.585C333.491 577.959 335.266 577.533 336.939 576.774Z" fill="#060626"/>
<path d="M352.945 522.854C353.576 522.959 354.203 523.041 354.806 523.255C357.142 524.086 358.825 526.126 359.788 528.111L359.121 529.099L358.184 529.092C357.339 527.184 355.529 527.036 353.911 525.869C352.595 524.922 352.938 524.261 352.945 522.854Z" fill="#0D0D0D"/>
<path d="M296.623 403.704C296.683 402.451 296.746 401.699 296.008 400.594C295.264 399.478 295.414 400.16 295.563 398.821C297.207 398.475 298.176 398.302 299.854 398.773C301.319 400.033 301.381 400.705 301.943 402.423C300.207 402.815 298.368 403.469 296.623 403.704Z" fill="#0D0D0D"/>
<path d="M317.165 444.948C319.071 445.341 321.111 445.516 322.456 446.905C323.089 448.283 322.954 449.024 322.628 450.42L321.809 453.909L320.302 454.119L319.965 453.422C320.34 452.183 320.681 451.219 320.419 449.92C318.53 448.286 317.579 447.315 317.165 444.948Z" fill="#0D0D0D"/>
<path d="M177.507 289.635C177.704 289.758 177.898 289.883 178.096 290.004C180.217 291.3 184.036 292.058 185.657 293.407C185.342 294.579 185.207 294.561 184.123 295.2C183.288 295.692 182.417 295.865 181.464 296.092L180.577 297.105C179.176 294.703 178.369 292.219 177.507 289.635Z" fill="#1A1A1A"/>
<path d="M309.176 433.643C311.5 433.222 310.483 433.831 311.58 434.726C312.028 435.091 313.84 435.471 314.49 435.686L314.711 436.249L311.769 438.738L310.968 439.08L308.935 438.113C308.171 438.808 308.564 438.545 307.804 438.954C307.556 436.698 307.92 435.597 309.176 433.643Z" fill="#0D0D0D"/>
<path d="M353.334 559.184L354.376 558.831L354.842 559.341C354.595 561.051 354.097 562.434 352.843 563.789C352.05 564.647 351.563 564.896 350.308 564.931C349.346 564.027 349.413 563.112 349.267 561.924L349.1 561.796L348.281 562.654L347.338 562.454L346.898 561.672C348.747 559.563 350.587 560.564 352.827 559.474C353.003 559.388 353.165 559.281 353.334 559.184Z" fill="#0D0D0D"/>
<path d="M363.096 540.945L363.752 540.847L364.397 541.632C364.179 542.956 364.195 543.955 362.897 544.849C361.531 545.791 360.292 545.504 358.744 545.388C357.425 544.813 356.748 544.249 356.272 543.063L357.001 542.141C358.913 541.084 360.923 541.093 363.096 540.945Z" fill="#0D0D0D"/>
<path d="M379.102 555.348C378.353 554.398 378.042 553.819 377.94 552.672C377.864 551.795 377.879 551.659 377.409 550.828L377.492 552.14C377.576 551.66 377.376 551.249 377.24 550.785C376.063 549.909 375.065 549.185 374.263 547.986C374.587 546.063 376.145 544.96 377.64 543.662C377.432 542.61 377.306 543.046 377.758 542.315L379.027 542.34L379.102 555.348Z" fill="#020119"/>
<path d="M352.173 529.555C353.343 529.954 352.885 529.608 353.518 530.621C351.792 532.864 350.385 535.814 347.689 537.173C346.519 536.454 346.002 535.974 345.322 534.854C345.386 534.05 345.308 533.628 345.789 532.917C347.069 531.028 349.909 530.056 352.173 529.555Z" fill="#0D0D0D"/>
<path d="M213.87 340.188C214.963 340.391 217.199 340.174 217.887 340.878C217.807 341.97 216.79 343.13 216.183 344.081C216.916 344.83 217.544 345.601 218.174 346.422C218.07 347.891 216.253 349.403 215.215 350.524C213.788 348.948 214.451 347.022 213.071 345.24C212.109 345.592 211.623 345.722 210.557 345.797C209.983 344.811 209.949 344.426 209.868 343.347C210.595 341.681 212.249 341.061 213.87 340.188Z" fill="#0D0D0D"/>
<path d="M343.721 580.612C345.837 579.538 348.555 580.779 350.439 579.585C349.981 577.85 346.822 576.26 345.351 574.933L345.574 574.864C346.342 575.912 346.628 575.959 347.922 576.479C350.016 576.401 351.494 575.819 353.395 575.06C354.875 575.299 355.326 575.329 356.356 576.422C357.498 577.634 357.906 579.423 358.166 580.944C353.619 581.151 348.161 581.577 343.721 580.612Z" fill="#060626"/>
<path d="M240.569 334.944C245.548 335.603 250.553 336.181 255.448 337.249C253.989 338.297 253.041 338.587 251.211 338.874L250.836 339.475C250.98 339.639 251.127 339.8 251.268 339.966C251.703 340.477 252.026 340.945 252.356 341.509C250.303 341.734 249.897 340.611 247.81 341.34C247.076 340.42 247.073 340.771 247.29 339.496L249.507 338.469L249.559 337.277C248 337.506 245.563 338.971 244.629 340.203C244.409 340.493 244.257 340.895 244.117 341.207C243.564 340.421 243.097 339.892 242.318 339.261C240.614 337.881 239.81 337.263 239.199 335.248L240.569 334.944Z" fill="#0D0D0D"/>
<path d="M278.778 346.505C282.851 348.09 285.616 350.027 288.708 352.809C287.962 352.939 287.312 353.107 286.615 353.385C284.271 354.321 282.707 355.029 280.125 354.349C278.093 352.877 277.233 351.366 276.245 349.242C277.275 348.472 277.995 347.471 278.778 346.505Z" fill="#0D0D0D"/>
<path d="M268.09 341.386C271.899 342.387 275.405 344.654 278.778 346.505C277.995 347.471 277.275 348.472 276.245 349.242L275.791 350.92C274.666 351.804 274.363 351.716 272.856 351.656C271.03 351.583 270.196 351.056 268.99 349.876C268.473 347.736 270.215 346.409 270.265 344.431C270.306 342.87 269.228 342.381 268.09 341.386Z" fill="#060626"/>
<path d="M349.043 537.581L350.076 537.117C350.285 537.366 350.487 537.619 350.703 537.864C351.047 538.253 351.413 538.567 351.708 538.994C352.556 540.219 352.497 540.466 352.18 541.801C351.453 542.347 351 542.629 350.564 543.4C351.679 544.845 353.351 544.036 354.609 545.346C353.606 546.875 351.709 548.033 350.218 549.193L348.534 548.149L345.905 548.885L345.239 548.346L345.773 548.497C346.598 546.808 347.232 545.078 347.882 543.33C347.532 542.067 347.145 541.904 346.065 541.004C345.808 539.712 346.026 539.79 346.684 538.699C347.473 538.525 347.926 538.409 348.58 537.944C348.74 537.83 348.888 537.702 349.043 537.581Z" fill="#0D0D0D"/>
<path d="M249.082 371.399C249.984 371.04 250.393 370.992 251.351 370.937C251.467 371.755 251.483 372.446 251.461 373.264C253.443 374.451 256.345 374.536 258.635 374.224C259.423 373.712 259.772 373.355 260.23 372.584L261.586 372.818C262.437 374.052 262.366 374.571 261.924 375.973C261.355 377.776 260.166 379.163 258.878 380.587C260.514 383.007 262.373 385.266 262.743 388.135C261.017 386.151 259.677 383.844 258.038 381.784C255.311 378.355 252.041 375.335 248.723 372.363L249.082 371.399Z" fill="#0D0D0D"/>
<path d="M220.339 336.032C222.835 335.639 225.117 335.656 227.636 335.728L226.327 336.722C224.949 336.874 223.597 337.068 222.231 337.285L221.879 338.128C223.014 339.343 223.749 338.441 225.215 339.17C224.58 339.873 224.176 340.472 223.777 341.305C224.289 342.443 224.312 342.722 225.545 343.315C225.857 343.465 226.184 343.591 226.502 343.729C226.616 344.788 226.746 345.7 227.129 346.712L227.459 347.555C226.797 348.48 226.369 348.763 225.097 348.929C221.515 349.398 222.456 345.56 220.614 343.861L218.864 345.256C219.089 344.279 219.021 344.77 219.069 343.781L217.941 344.07L217.577 343.633C218.424 342.738 219.298 342.587 220.502 342.283L221.007 342.16L221.236 341.071C220.346 339.796 219.23 339.516 217.684 339.015L216.657 338.687C217.509 337.83 218.672 337.746 219.87 337.397L220.339 336.032Z" fill="#0D0D0D"/>
<path d="M240.199 367.492C239.711 366.165 239.224 365.193 239.701 363.79L239.716 363.794L240.637 365.455C240.788 365.256 240.926 365.049 241.089 364.858C241.839 363.98 241.581 364.244 242.584 363.689C243.795 363.017 244.548 362.237 245.475 361.286C246.504 361.501 246.118 361.253 246.627 361.841C247.74 363.127 248.597 363.758 250.18 364.54C251.045 366.106 250.418 368.277 249.794 369.866C249.589 370.388 249.329 370.892 249.081 371.399L248.722 372.363C245.599 372.05 242.484 369.314 240.199 367.492Z" fill="#060626"/>
<path d="M349.006 478.719C351.938 479.889 356.186 486.832 357.658 489.536C357.279 490.362 356.951 491.233 356.559 492.048C355.837 493.549 353.561 495.317 351.735 495.639C351.011 495.766 350.902 495.722 350.255 495.667C349.338 494.567 349.393 494.436 349.362 493.045C349.649 492.517 349.472 492.905 349.62 491.807C350.041 490.882 350.26 490.13 351.176 489.512C351.961 488.981 352.643 488.477 353.367 487.869C351.649 487.634 350.647 488.48 349.123 487.702L348.881 486.228C349.16 485.777 349.377 485.489 349.552 485.015C350.253 483.12 350.082 480.468 349.006 478.719Z" fill="#060626"/>
<path d="M204.889 293.923C206.351 298.485 211.294 308.125 211.295 312.321L210.546 312.747C209.924 311.643 209.645 310.718 209.59 309.474C209.581 309.266 209.587 309.057 209.585 308.849C208.937 309.704 208.417 310.32 207.367 310.799C206.254 311.306 205.437 311.595 204.224 311.247C204.102 309.994 204.33 309.222 205.216 308.199C206.058 307.225 206.832 306.944 208.129 306.75L208.409 307.349L208.041 306.604C206.226 306.007 204.615 304.384 202.962 303.405C202.597 304.289 202.545 304.521 201.71 305.141C200.001 305.195 199.076 304.982 197.477 304.429L197.469 303.656L198.521 302.703L199.44 302.863C201.548 300.085 201.787 295.94 204.889 293.923Z" fill="#0D0D0D"/>
<path d="M290.838 388.066C291.777 388.303 292.329 388.357 293.328 388.288C294.565 388.202 294.083 388.373 294.922 387.451C294.627 386.242 294.296 385.058 293.931 383.866L294.659 383.231C295.447 384.031 295.229 384.087 296.497 384.248C298.859 382.053 301.944 380.119 303.956 377.746C304.562 377.032 305.118 376.409 305.849 375.792L306.61 375.162L308.129 378.011C309.222 379.873 311.07 382.459 311.113 384.605C312.412 387.754 313.378 390.822 313.53 394.205C312.407 395.174 311.758 396.172 310.067 396.129C309.309 396.109 308.779 395.936 308.039 395.859C307.926 395.847 307.81 395.867 307.696 395.871L308.123 393.877C305.014 386.96 295.445 392.043 290.838 388.066Z" fill="#0D0D0D"/>
<path d="M308.129 378.011C309.222 379.873 311.07 382.459 311.113 384.605L310.314 384.44L309.594 382.801C309.326 383.708 309.538 383.321 309.019 383.99C307.966 383.598 306.723 383.226 305.887 382.509C304.998 381.748 305.007 381.485 304.935 380.456C305.91 379.041 306.533 378.715 308.129 378.011Z" fill="#060626"/>
<path d="M270.41 358.883C270.496 358.67 270.624 358.466 270.668 358.243C270.931 356.945 270.705 356.627 271.63 355.45L272.939 355.36C274.365 356.277 275.844 357.418 277.641 357.597C277.973 357.63 278.307 357.643 278.64 357.665C280.139 357.17 281.403 356.681 283.035 356.773C284.027 357.405 284.38 358.103 285.183 358.759C285.366 358.909 285.61 358.981 285.825 359.092C287.166 358.802 287.301 358.729 288.521 359.455C290.048 360.365 291.399 361.694 292.716 362.836C294.135 362.984 295.928 363.579 297.025 364.388C295.785 364.742 294.568 365.117 293.436 365.707C291.477 366.729 289.895 367.852 289.417 369.926C288.809 372.563 283.481 372.414 281.246 374.052C280.961 374.26 280.711 374.507 280.401 374.682C277.78 376.162 272.15 372.038 269.549 371.269C267.381 370.628 264.45 370.741 262.146 370.49L261.676 369.923C262.399 368.596 262.868 367.913 264.168 366.943L264.877 367.11L265.476 368.471C266.041 366.265 267.133 367.607 268.328 366.409C267.833 364.757 267.034 364 265.716 362.784L262.307 359.629L262.711 358.75L263.553 358.654L265.587 360.78L266.585 360.747C267.866 359.854 268.786 359.22 270.41 358.883Z" fill="#0D0D0D"/>
<path d="M285.825 359.092C287.166 358.802 287.302 358.729 288.522 359.455C290.048 360.365 291.4 361.694 292.716 362.836C292.377 363.812 292.494 363.83 291.573 364.555L290.334 364.256C287.748 363.647 284.273 363.12 282.692 360.959C282.167 360.242 282.372 360.39 282.617 359.439C283.478 359.858 284.215 360.163 285.165 360.383L285.825 359.092Z" fill="#1A1A1A"/>
<path d="M77.5949 65.2609C79.896 63.3199 82.0938 60.9089 83.1927 58.2229C84.2049 59.6049 85.3249 61.4809 87.1316 62.1279L88.8671 63.6209C89.8171 65.4089 90.6249 67.0799 91.1594 69.0059C91.7705 71.9289 92.2949 74.8609 93.3294 77.6919C94.3705 78.2679 94.6816 78.4599 95.936 78.5629C97.8694 84.2669 100.112 89.8789 102.115 95.5619L102.3 95.9269C105.148 101.465 106.685 107.326 108.82 113.093C110.903 118.718 113.218 124.164 115.07 129.874C116.393 133.949 117.296 139.435 119.369 143.151C120.923 142.652 121.994 142.076 123.349 141.226L125.352 141.206C127.323 141.024 129.248 140.497 131.163 140.049C131.759 141.325 132.139 142.379 132.266 143.765C132.797 149.557 136.248 154.832 136.888 160.531L135.863 160.598C134.839 160.661 133.872 160.631 132.848 160.588C131.478 160.531 130.742 160.64 129.494 161.127C128.362 162.651 128.349 163.457 128.702 165.276C130.514 169.186 131.692 172.802 132.552 176.972C132.805 177.715 133.047 178.153 133.499 178.814C134.707 180.579 139.94 193.508 141.285 196.508C143.256 202.025 144.984 208.235 147.747 213.436C147.766 214.524 147.812 214.753 148.555 215.634C150.196 217.577 150.909 222.631 152.018 225.189C153.272 228.42 154.536 233.759 156.948 236.311C158.426 240.485 162.113 253.3 165.139 255.939C165.587 257.415 166.004 258.495 166.949 259.775C167.962 261.144 167.904 262.207 167.988 263.799C168.045 264.855 168.283 265.594 168.67 266.58C170.784 272.646 173.555 283.721 177.195 288.947L177.507 289.635C178.369 292.219 179.176 294.703 180.577 297.105C183.89 304.147 195.419 337.189 199.38 340.236C199.29 341.593 199.317 342.343 199.858 343.652C200.374 349.441 204.986 356.078 207.168 361.615C214.489 360.786 221.702 361.238 228.747 363.278C231.104 363.96 232.328 364.92 234.628 363.942C236.655 366 237.257 366.457 240.199 367.492C242.484 369.314 245.599 372.05 248.723 372.363C252.04 375.335 255.31 378.355 258.038 381.784C259.677 383.844 261.017 386.151 262.743 388.135C264.304 390.782 266.745 393.854 267.6 396.738C268.28 399.028 268.287 401.727 269.157 403.919C269.729 405.363 271.657 404.983 271.974 406.182C276.944 424.986 267.536 442.293 275.107 461.067C282.049 478.284 301.532 482.123 305.24 491.281C318.597 498.694 326.814 516.928 330.254 530.184C332.25 537.881 333.942 547.212 333.394 555.168C333.089 559.605 332.037 564.026 331.946 568.467C329.679 572.129 331.205 576.848 327.804 581.053C287.476 581.5 247.147 581.546 206.817 581.191C189.425 581.16 169.018 582.328 152.04 581.196C151.077 579.984 150.185 578.731 149.364 577.438C148.542 576.145 147.796 574.817 147.124 573.456C146.452 572.094 145.859 570.705 145.344 569.29C144.828 567.874 144.394 566.438 144.04 564.983C141.018 552.056 143.49 523.55 145.658 509.712C147.575 497.48 130.163 479.287 122.517 469.987C110.322 455.152 104.232 437.027 107.389 418.638C110.027 403.273 120.363 388.046 135.744 380.473C140.26 378.249 146.09 377.024 150.172 374.336C150.889 372.454 150.346 370.993 149.727 369.101C132.866 317.572 113.758 266.662 96.5171 215.244L86.7949 185.582C84.4216 178.583 81.6716 171.657 79.4671 164.617C73.796 146.508 68.9438 128.15 61.6482 110.489C61.2871 109.37 60.716 108.458 60.026 107.482C58.5916 105.454 58.1794 104.432 58.2371 101.992L59.0549 102.155C59.9716 102.346 60.7827 102.631 61.6594 102.929C65.2849 104.159 69.1571 104.404 72.9894 104.596C74.9316 95.7719 69.946 87.4569 65.926 79.5589L67.2205 78.4079C68.8382 78.1949 70.3227 78.2179 71.9538 78.2889L72.1194 77.6579L73.3538 76.9059C73.676 74.5039 71.5416 71.8879 70.2371 69.8039L74.7394 67.9999C75.7282 67.1189 76.6538 66.1839 77.5949 65.2609Z" fill="white"/>
<path d="M77.595 65.2609C79.8961 63.3199 82.0939 60.9089 83.1928 58.2229C84.205 59.6049 85.325 61.4809 87.1317 62.1279L88.8673 63.6209C89.8173 65.4089 90.625 67.0799 91.1595 69.0059C91.7706 71.9289 92.295 74.8609 93.3295 77.6919C94.3706 78.2679 94.6817 78.4599 95.9361 78.5629C97.8695 84.2669 100.112 89.8789 102.115 95.5619L102.301 95.9269C99.9839 96.9559 97.9161 98.2909 95.7895 99.6009C94.5661 100.021 93.2684 100.588 91.9939 100.836L86.1561 101.366C86.9839 103.008 87.0817 104.001 86.3617 105.713C85.4817 107.807 83.9506 109.553 81.6195 110.447C80.2095 110.987 78.5606 111.053 77.125 110.543C74.8739 109.743 74.0595 107.944 73.4295 106.029C73.2754 105.553 73.1287 105.075 72.9895 104.596C74.9317 95.7719 69.9461 87.4569 65.9261 79.5589L67.2206 78.4079C68.8384 78.1949 70.3228 78.2179 71.9539 78.2889L72.1195 77.6579L73.3539 76.9059C73.6761 74.5039 71.5417 71.8879 70.2372 69.8039L74.7395 67.9999C75.7284 67.1189 76.6539 66.1839 77.595 65.2609Z" fill="black"/>
<path d="M86.4681 93.1958C87.977 92.3658 88.117 92.0848 89.9315 92.3018C91.2326 93.4178 92.5104 94.6168 93.9415 95.5948L95.7893 99.6008C94.5659 100.021 93.2681 100.588 91.9937 100.836C91.5748 98.9208 91.0837 97.2408 89.3893 95.9488C88.6704 97.2548 88.5581 97.7808 87.1459 98.5508C86.1037 97.9338 85.8948 97.2078 85.7215 96.1198C85.5226 94.8648 85.677 94.2098 86.4681 93.1958Z" fill="black"/>
<path d="M77.5946 65.2609C79.8957 63.3199 82.0935 60.9089 83.1923 58.2229C84.2046 59.6049 85.3246 61.4809 87.1312 62.1279C86.7823 63.0689 86.4546 63.9099 85.9612 64.8009L85.4612 64.9619C82.9268 65.8029 77.7535 69.0639 75.3546 68.7279L74.739 67.9999C75.7279 67.1189 76.6535 66.1839 77.5946 65.2609Z" fill="black"/>
<path d="M87.1081 67.5378L86.7636 66.5489C87.1492 65.0479 87.6681 64.6318 88.867 63.6208C89.817 65.4088 90.6247 67.0799 91.1592 69.0059C91.7703 71.9289 92.2947 74.8608 93.3292 77.6918C93.4025 78.5948 93.3803 79.2399 93.1247 80.1169L91.8725 80.5849C90.738 80.2749 90.1536 79.7949 89.2814 79.0879L90.4092 77.6299L87.9692 74.1189C86.807 73.3049 85.4692 72.5669 84.7792 71.3669C85.7225 70.4009 86.4203 69.7108 86.8281 68.4568C86.9281 68.1518 87.0147 67.8448 87.1081 67.5378Z" fill="black"/>
<path d="M87.1081 67.5378L88.6025 67.5808C89.2392 68.4518 89.7947 69.3168 90.3225 70.2448C89.6581 71.6208 89.1892 73.0748 87.9692 74.1188C86.807 73.3048 85.4692 72.5668 84.7792 71.3668C85.7225 70.4008 86.4203 69.7108 86.8281 68.4568C86.9281 68.1518 87.0147 67.8448 87.1081 67.5378Z" fill="black"/>
<path d="M65.9261 79.5589L67.2206 78.4079C68.8384 78.1949 70.3228 78.2179 71.9539 78.2889C73.7128 78.4979 74.3373 78.2879 75.4928 79.6439C80.7706 85.8379 81.5961 95.5849 86.1561 101.366C86.9839 103.008 87.0817 104.001 86.3617 105.713C85.4817 107.807 83.9506 109.553 81.6195 110.447C80.2095 110.987 78.5606 111.053 77.125 110.543C74.8739 109.743 74.0595 107.944 73.4295 106.029C73.2754 105.553 73.1287 105.075 72.9895 104.596C74.9317 95.7719 69.9461 87.4569 65.9261 79.5589Z" fill="#060626"/>
<path d="M173.867 367.955C173.273 367.04 172.983 366.395 172.817 365.366C172.339 362.388 170.488 359.298 169.402 356.419C166.397 348.461 163.394 340.453 160.736 332.395C155.856 317.6 151.033 302.803 145.629 288.149C143.671 282.837 141.241 277.654 139.193 272.363L123.475 230.43C118.154 215.934 113.436 201.224 108.016 186.752C103.882 175.716 99.9384 164.438 95.3339 153.558C93.1995 148.514 89.675 143.482 88.2506 138.269C87.8306 136.735 88.0361 136.175 88.9917 134.982C90.3495 134.668 91.3306 134.469 92.6406 135.116C93.6873 135.633 94.5984 136.453 95.0928 137.44C96.2395 139.732 96.5517 142.395 97.6039 144.753C107.645 167.245 115.406 190.426 123.544 213.527C125.275 218.44 126.914 223.48 128.841 228.327C129.927 231.064 131.443 233.639 132.472 236.411C135.642 244.955 138.123 253.712 141.195 262.287C145.165 273.367 149.704 284.268 153.564 295.389C157.131 305.663 159.936 316.167 163.559 326.4C168.613 340.672 174.976 354.729 179.545 369.13C181.122 374.188 185.776 380.474 184.829 385.778C184.571 387.231 182.943 387.991 181.697 388.782C179.045 381.807 176.161 375.048 173.867 367.955Z" fill="black"/>
<path d="M197.304 401.697C198.159 402.193 198.752 402.36 199.774 402.446C206.814 403.041 213.565 404.632 218.962 408.999C219.466 409.405 219.958 409.822 220.439 410.251C220.919 410.68 221.387 411.119 221.842 411.568C222.299 412.018 222.742 412.478 223.171 412.947C223.602 413.417 224.018 413.896 224.421 414.385C224.824 414.874 225.214 415.371 225.589 415.878C225.964 416.384 226.325 416.899 226.671 417.422C227.018 417.945 227.349 418.475 227.666 419.012C227.983 419.55 228.284 420.095 228.57 420.646C228.857 421.198 229.128 421.756 229.382 422.319C229.637 422.883 229.876 423.452 230.099 424.027C230.322 424.602 230.529 425.181 230.72 425.765C230.911 426.349 231.085 426.937 231.242 427.529C231.4 428.12 231.541 428.715 231.665 429.314C231.789 429.912 231.897 430.513 231.988 431.116C232.078 431.719 232.152 432.324 232.209 432.931C232.265 433.537 232.305 434.144 232.328 434.753C232.624 442.852 227.956 451.033 221.884 456.838C215.19 463.238 205.971 466.531 196.28 466.755C195.762 466.754 195.245 466.759 194.728 466.734C184.009 466.214 175.096 462.746 167.885 455.454C163.086 450.6 158.914 443.368 159.117 436.674C159.187 434.391 160.095 431.889 160.261 429.49C160.798 421.789 165.347 414.78 171.775 409.812C177.356 405.497 187.069 401.832 194.63 402.638C195.971 402.781 196.194 402.34 197.304 401.697Z" fill="#969696"/>
<path d="M175.093 435.738L176.082 435.743C177.377 437.48 177.906 439.066 178.452 441.087L177.556 442.126C177.264 442.023 176.962 441.94 176.679 441.817C172.479 439.989 176.079 438.659 175.093 435.738Z" fill="#9B9B9B"/>
<path d="M199.16 442.996C199.511 443.194 199.591 443.201 199.855 443.533C200.627 444.506 200.811 445.756 200.449 446.885C200.118 447.917 199.304 447.931 198.305 448.372C197.424 447.742 196.859 447.167 196.216 446.338C196.538 444.745 197.87 444.087 199.16 442.996Z" fill="#838383"/>
<path d="M195.662 530.006C195.9 521.039 199.815 512.496 207.135 506.277C214.742 499.814 226.364 497.602 236.552 498.083C246.147 498.536 256.529 502.882 262.808 509.474C268.196 515.132 271.004 524.545 270.225 531.94C269.258 541.117 265.316 549.14 257.339 555.068C249.4 560.967 238.357 563.886 228.145 562.989C218.774 562.166 209.989 558.71 203.996 552.016C199.749 547.273 195.836 541.31 195.851 535.067C195.71 533.374 195.669 531.703 195.662 530.006Z" fill="#9B9B9B"/>
<path d="M218.64 526.9C220.055 527.124 220.796 526.958 221.737 528.004L221.524 529.377C220.356 529.441 220.046 529.495 218.957 529.025L218.64 526.9Z" fill="#969696"/>
<path d="M213.319 528.413C213.448 528.517 213.597 528.605 213.708 528.725C215.515 530.68 215.774 532.787 215.607 535.23C214.413 534.545 213.084 534.002 212.502 532.781C212.993 531.431 213.203 530.31 213.293 528.89L213.319 528.413Z" fill="#969696"/>
<path d="M195.662 530.006C197.56 530.129 198.811 530.285 200.499 531.1L201.305 532.116C200.938 533.329 200.797 533.521 199.472 534.164C198.425 534.673 197.016 534.936 195.851 535.067C195.71 533.374 195.669 531.703 195.662 530.006Z" fill="#838383"/>
</svg>
